<svg width="32" height="32" viewBox="0 0 32 32" fill="none" xmlns="http://www.w3.org/2000/svg">
<circle cx="16" cy="16" r="16" fill="white"/>
<path fill-rule="evenodd" clip-rule="evenodd" d="M14.2049 19.7907C15.2879 20.879 13.6322 20.706 17.1278 22.8049C19.2787 24.096 19.3194 23.3985 20.3881 23.8747C20.8809 24.0946 21.2199 24.0434 21.8571 23.9971C25.1716 23.7558 26.907 23.7515 29.0794 21.6099C31.2583 19.4612 33.5798 19.6213 30.5477 16.9651C29.2118 15.795 29.9583 15.9074 29.2589 15.2142C28.1942 14.1608 28.6344 14.1971 27.9135 13.5231C27.0936 12.7573 26.6901 13.3765 25.9037 12.6377C24.6636 11.4733 24.6022 12.543 23.5893 12.1772C22.716 11.8619 21.8483 11.9131 20.9527 12.3316C19.8154 12.864 20.3681 13.0299 18.7101 13.2256C18.0984 10.6911 19.3409 11.3544 18.5713 10.6007C17.9875 10.0292 17.5042 9.29678 16.8806 8.83557C15.886 8.10105 15.2943 8.60639 14.11 8.316C12.7821 7.99002 12.5054 7.89109 10.9781 8.13877C9.89985 8.31386 8.91491 8.56084 7.80716 8.66333C6.5072 8.78433 5.0908 9.70674 4.23984 10.3886L1.70453 13.0128C0.875901 13.985 0.785781 16.5032 0.479533 18.0071C0.237087 19.1964 -0.778955 19.5978 1.17896 19.7587C1.65029 19.7971 2.04666 20.0163 2.32181 20.2555C2.84179 20.706 2.65677 20.6313 3.37214 20.9722C6.2177 22.3266 8.95559 22.3537 12.0843 21.1658C13.2303 20.7316 13.661 20.6604 14.2049 19.7907Z" fill="#262626"/>
<path fill-rule="evenodd" clip-rule="evenodd" d="M1.31294 15.9359C1.60483 16.3743 1.67422 16.669 2.29788 16.3872C2.80829 16.1565 2.96142 15.822 3.41441 15.8939C3.53164 16.4783 3.31233 16.4533 3.26926 16.906C3.82513 17.0711 5.09718 16.995 5.81176 17.1409C5.81734 17.7388 5.25349 17.6889 4.55327 17.8676C4.4799 18.1373 4.45198 18.1046 4.40971 18.1758L1.10718 19.0441C1.67103 19.2533 5.88513 18.5153 6.35726 18.3722C7.26883 18.096 7.66998 17.832 8.41487 17.4797C10.2412 16.6163 10.1989 17.2071 12.3155 15.5238C14.0765 14.1238 17.241 12.8042 17.2283 11.8961C15.9522 12.1715 12.2063 14.8918 11.6177 14.9808C11.8825 14.8612 12.1409 14.5366 12.3642 14.3701C12.6266 14.1736 12.9807 13.9729 13.2742 13.7886C14.2615 13.1679 16.1141 12.153 16.8909 11.442C17.5951 10.7978 17.6868 10.5608 16.9452 9.88326C16.5743 10.2669 16.922 10.4171 15.7505 11.3053C15.2999 11.647 14.543 12.1857 13.9138 12.3473L14.3237 11.943C14.4872 11.8363 14.6236 11.7615 14.7775 11.6541C15.5814 11.0925 16.8295 10.311 16.552 9.15372C15.1563 8.51244 14.5869 8.92383 13.2263 9.18006L13.3507 8.94447C13.3611 8.92525 13.3794 8.89678 13.3898 8.87685C13.4719 8.72881 13.468 8.82632 13.5166 8.6434C12.365 8.46191 11.8306 8.67828 10.6838 8.83059C9.63587 8.97009 8.94043 9.61279 8.49382 9.61635L9.06724 9.00853C7.60379 9.16084 7.14521 9.12241 6.055 9.86902C6.14512 10.1302 6.02788 9.88254 6.25438 10.0498C6.46333 10.2043 6.33333 9.99144 6.47769 10.2C5.23435 10.7445 4.90258 10.3594 3.64728 11.5786C2.97737 12.2292 2.10089 12.8242 1.66225 13.8035C1.42539 14.3381 1.09442 15.2975 1.31294 15.9359Z" fill="#D99C63"/>
<path fill-rule="evenodd" clip-rule="evenodd" d="M20.7485 13.1957C21.0165 13.563 21.3323 13.4647 21.5062 14.222C20.6632 14.237 20.6807 13.5075 18.982 13.8377C17.9429 14.0398 17.6039 14.3715 17.5042 15.2569C17.8798 15.227 18.3671 14.7772 18.7276 15.6313C18.2555 15.6249 18.0936 15.6854 17.6884 15.7096C17.1948 15.7395 17.2785 15.632 16.796 15.6719C16.3669 16.2114 16.2673 16.8491 16.7912 17.3893C17.2139 17.8242 16.8925 17.5082 17.3064 17.5836C17.8727 18.4861 17.3846 18.5117 18.7005 18.7985C19.5985 18.9943 20.0635 18.9288 20.6927 19.4057L20.455 19.5174C20.2365 19.6135 20.3769 19.5039 20.1655 19.6398L23.1243 20.2654C23.7536 20.3259 23.2878 20.2612 23.4896 20.195C23.6045 20.1573 23.3341 20.0797 23.8469 20.1295C23.9003 20.1345 24.1619 20.2064 24.2712 20.2291C24.5328 20.2832 24.9355 20.3459 25.1812 20.338C25.6357 20.3245 25.67 20.2021 26.0592 20.1089C26.4022 20.0263 26.3998 20.0341 26.6869 20.1644L26.9596 20.2946C27.7779 20.4299 29.6313 19.4014 29.9416 18.9793C30.4799 18.2477 29.806 17.9487 29.3378 16.9487C29.1616 16.5729 29.2158 16.3466 29.0906 16.0213C28.4901 15.9338 28.5379 16.0761 27.9613 16.1772C28.0777 15.8171 28.1232 15.9608 28.1216 15.6583L27.7005 15.2085L28.0809 15.1381C28.0953 15.1359 28.1312 15.1395 28.1535 15.1302C27.7069 13.3857 27.2603 13.9188 25.6589 13.622C25.3805 13.2754 25.4882 12.6313 24.5567 12.79C24.0168 12.8818 23.1499 13.2548 22.6722 13.0662C22.9066 12.8199 22.988 12.9751 23.1204 12.6591C21.7327 12.4576 21.6298 12.8541 20.7485 13.1957Z" fill="#F5E3A4"/>
<path fill-rule="evenodd" clip-rule="evenodd" d="M2.73174 19.6162C3.45828 20.8532 4.62266 21.3685 6.14513 21.6063C8.00814 21.8974 8.35107 21.3059 9.80256 21.0988C10.1886 21.044 10.6615 20.9479 10.9757 20.7934C10.5108 20.4184 9.29055 20.5579 8.88381 19.9372C9.70686 20.0091 10.691 20.5764 11.5707 20.4169C12.5564 20.2376 13.4592 19.8198 14.1594 19.4846C13.9353 16.8824 13.0229 15.686 16.8861 13.896L18.0067 13.5024L17.8902 12.923C17.753 12.5835 17.8448 12.7942 17.7483 12.6703C17.5034 12.8098 17.7004 12.6853 17.5289 12.8212L17.0257 13.2689C16.7617 13.481 16.4874 13.6326 16.17 13.797C15.067 14.3671 13.9114 15.155 12.8961 15.8746C11.4758 16.881 11.7158 17.0554 9.41736 17.7863C8.67486 18.0226 7.8582 18.1016 7.16595 18.3479C5.68974 18.8717 3.23816 19.2604 2.73174 19.6162Z" fill="#BB7533"/>
<path fill-rule="evenodd" clip-rule="evenodd" d="M16.0336 20.7758L15.2727 20.5494C15.6013 21.4932 16.4698 21.7267 17.1884 22.3117C17.816 22.8227 18.6821 23.3494 19.9805 23.3352C19.6942 22.6213 19.1216 22.6135 18.8361 22.2057C20.6177 22.4441 19.3425 23.8227 23.3588 23.4448L22.9792 23.0163C23.9912 23.0548 25.0384 23.5146 26.0114 23.0035C26.1142 22.9494 26.2163 22.884 26.2881 22.7672C26.4125 22.5644 26.3192 22.6989 26.371 22.5551L26.446 22.3252C27.2387 22.2605 27.8265 22.1295 28.1439 21.563C27.3065 21.8142 24.9204 22.0569 23.9011 21.9921C22.7862 21.921 19.7452 21.1338 18.6997 20.7288C18.0003 20.4583 17.9596 20.1907 17.1756 20.0783C15.7337 19.8704 15.5487 19.1914 14.7225 18.1872C14.5119 18.5345 14.7926 19.3651 15.0287 19.7623C15.4426 20.4605 15.9801 20.1672 16.0336 20.7758Z" fill="#BB7533"/>
<path fill-rule="evenodd" clip-rule="evenodd" d="M31.4696 19.2475C31.476 18.4404 30.6705 17.4411 30.0492 17.1165C30.184 17.7073 31.9306 19.3856 27.7867 20.4396C24.9379 21.1642 24.0279 20.6724 21.9632 20.2994C20.097 19.9628 18.269 19.6154 17.1254 18.6361C16.7107 18.2809 15.7632 17.461 15.6994 16.7165C15.6293 15.9009 16.1652 15.5151 16.4954 15.1457C16.5161 15.1222 16.6628 14.9507 16.6836 14.9201C16.8598 14.6653 16.7338 14.9187 16.863 14.6041C15.272 14.9101 14.0829 16.3464 14.7073 17.4062C14.9689 17.851 16.6908 19.4517 17.5497 19.8005C18.5745 20.2162 18.0816 20.377 20.0507 20.8112C22.59 21.3706 23.3851 21.5713 26.1286 21.2902C28.463 21.0503 29.4072 20.5386 31.4696 19.2475Z" fill="#D99C63"/>
<path fill-rule="evenodd" clip-rule="evenodd" d="M4.41131 18.1757C4.45278 18.1038 4.48149 18.1373 4.55486 17.8675C5.25508 17.6889 5.81813 17.7387 5.81335 17.1408C5.09877 16.9949 3.82592 17.0711 3.27085 16.9059C3.31312 16.4533 3.53323 16.4782 3.416 15.8938C2.96301 15.822 2.80988 16.1565 2.29947 16.3871C1.67581 16.6682 1.60722 16.3743 1.31453 15.9358C1.24594 16.0611 1.30815 15.8348 1.21883 16.1935C1.1 16.6704 1.14306 17.9878 1.20846 18.4284C3.47023 18.4412 3.90249 17.7451 4.41131 18.1757Z" fill="#BB7533"/>
<path fill-rule="evenodd" clip-rule="evenodd" d="M18.7252 16.8633L19.1535 17.1608C19.3816 17.3103 19.3433 17.2526 19.4861 17.4434C19.7126 17.7459 19.6615 17.9921 19.9167 18.2747C20.4295 18.8434 21.2438 18.5195 22.1059 18.632L22.1801 19.0747C22.1817 19.0846 22.1809 19.1124 22.1897 19.1288C24.2927 17.9857 24.8127 18.738 25.5943 18.3209C25.2713 17.6711 21.4097 18.2761 20.6465 17.933C20.1935 17.7295 20.03 17.301 19.8848 16.701C19.124 16.8925 19.9662 17.0597 18.7252 16.8633Z" fill="#262626"/>
<path fill-rule="evenodd" clip-rule="evenodd" d="M21.3762 16.4525L21.357 16.8803C21.83 16.7401 21.9161 16.5415 22.4154 16.3529C22.6419 16.2675 23.48 16.0056 23.7775 15.9714C25.2721 15.7999 25.1843 16.9258 25.8662 17.1379C26.3128 16.9009 25.8335 17.2191 26.1597 16.7294C26.643 16.6931 26.844 16.6931 27.0952 16.3885C26.5098 16.0525 26.1653 16.6241 25.3941 16.0646C24.0718 15.1059 22.9744 15.5913 21.7686 15.7657C20.778 15.9088 20.6608 15.6632 19.8481 15.5223C20.3649 16.0739 20.4208 16.2717 21.3762 16.4525Z" fill="#262626"/>
<path fill-rule="evenodd" clip-rule="evenodd" d="M22.393 13.6248C22.5238 13.8575 22.6163 13.7557 22.7798 14.076C22.4026 14.2048 22.1689 14.4212 22.0581 14.7322C22.7048 14.6831 22.964 14.1814 23.9035 14.207C24.7178 14.229 25.0232 14.5621 25.8718 14.649C25.6413 14.2354 25.0097 13.7465 24.4538 13.6283C23.299 13.3842 23.5095 13.4298 22.393 13.6248Z" fill="#262626"/>
<path fill-rule="evenodd" clip-rule="evenodd" d="M26.8575 18.1915C26.8663 18.215 26.887 18.2235 26.8958 18.2584C26.9038 18.2918 26.9277 18.3096 26.9349 18.3224C26.9453 18.3395 27.0011 18.4178 27.0123 18.442C27.2316 18.926 26.7156 19.0043 27.1757 19.4306C27.4852 19.0698 27.2388 18.7367 27.8632 18.3132C28.652 17.7787 28.5634 17.7481 29.1648 17.5737C28.9375 17.2299 29.2517 17.5488 28.9447 17.3708C28.7636 17.2655 28.8745 17.373 28.7054 17.274C28.4111 17.1025 28.6823 17.1865 28.3816 16.921C27.9956 17.3239 28.6855 17.6684 26.8575 18.1915Z" fill="#262626"/>
</svg>
