<svg width="25" height="25" viewBox="0 0 25 25" fill="none" xmlns="http://www.w3.org/2000/svg">
<path d="M8.57656 6.23755C8.14595 6.23755 7.79688 6.58663 7.79688 7.01724V14.8141C7.79688 15.2447 8.14595 15.5938 8.57656 15.5938H16.3734C16.804 15.5938 17.1531 15.2447 17.1531 14.8141V7.01724C17.1531 6.58663 16.804 6.23755 16.3734 6.23755H8.57656Z" fill="#A6672C"/>
<path d="M10.1359 17.1532C9.70533 17.1532 9.35625 17.5023 9.35625 17.9329C9.35625 18.3635 9.70533 18.7125 10.1359 18.7125H14.8141C15.2447 18.7125 15.5938 18.3635 15.5938 17.9329C15.5938 17.5023 15.2447 17.1532 14.8141 17.1532H10.1359Z" fill="#A6672C"/>
<path d="M4.67813 0H20.2719C21.9943 0 23.3906 1.39631 23.3906 3.11875V21.8313C23.3906 23.5537 21.9943 24.95 20.2719 24.95H4.67813C2.95569 24.95 1.55938 23.5537 1.55938 21.8313V20.2719H3.11875V21.8313C3.11875 22.6925 3.81691 23.3906 4.67813 23.3906H20.2719C21.1331 23.3906 21.8313 22.6925 21.8313 21.8313V3.11875C21.8313 2.25753 21.1331 1.55938 20.2719 1.55938H4.67813C3.81691 1.55938 3.11875 2.25753 3.11875 3.11875V4.67813H1.55938V3.11875C1.55938 1.39631 2.95569 0 4.67813 0Z" fill="#A6672C"/>
<path d="M1.55938 7.79688V7.01719C1.55938 6.58658 1.90845 6.2375 2.33906 6.2375C2.76967 6.2375 3.11875 6.58658 3.11875 7.01719V7.79688H3.89844C4.32905 7.79688 4.67813 8.14595 4.67813 8.57656C4.67813 9.00717 4.32905 9.35625 3.89844 9.35625H0.779688C0.349078 9.35625 0 9.00717 0 8.57656C0 8.14595 0.349078 7.79688 0.779688 7.79688H1.55938Z" fill="#A6672C"/>
<path d="M1.55938 12.475V11.6953C1.55938 11.2647 1.90845 10.9156 2.33906 10.9156C2.76967 10.9156 3.11875 11.2647 3.11875 11.6953V12.475H3.89844C4.32905 12.475 4.67813 12.8241 4.67813 13.2547C4.67813 13.6853 4.32905 14.0344 3.89844 14.0344H0.779688C0.349078 14.0344 0 13.6853 0 13.2547C0 12.8241 0.349078 12.475 0.779688 12.475H1.55938Z" fill="#A6672C"/>
<path d="M1.55938 17.1531V16.3734C1.55938 15.9428 1.90845 15.5938 2.33906 15.5938C2.76967 15.5938 3.11875 15.9428 3.11875 16.3734V17.1531H3.89844C4.32905 17.1531 4.67813 17.5022 4.67813 17.9328C4.67813 18.3634 4.32905 18.7125 3.89844 18.7125H0.779688C0.349078 18.7125 0 18.3634 0 17.9328C0 17.5022 0.349078 17.1531 0.779688 17.1531H1.55938Z" fill="#A6672C"/>
</svg>
