<svg width="24" height="18" viewBox="0 0 24 18" fill="none" xmlns="http://www.w3.org/2000/svg">
<path d="M0 3C0 1.34315 1.34315 0 3 0H21C22.6569 0 24 1.34315 24 3V15C24 16.6569 22.6569 18 21 18H3C1.34315 18 0 16.6569 0 15V3ZM3 1.5C2.17157 1.5 1.5 2.17157 1.5 3V3.32536L12 9.62536L22.5 3.32536V3C22.5 2.17157 21.8284 1.5 21 1.5H3ZM22.5 5.07464L15.4379 9.31191L22.5 13.6578V5.07464ZM22.4494 15.3879L13.9887 10.1814L12 11.3746L10.0113 10.1814L1.55065 15.3879C1.72162 16.0283 2.30573 16.5 3 16.5H21C21.6943 16.5 22.2784 16.0283 22.4494 15.3879ZM1.5 13.6578L8.56211 9.31191L1.5 5.07464V13.6578Z" fill="#A6672C"/>
</svg>
