<svg width="25" height="25" viewBox="0 0 25 25" fill="none" xmlns="http://www.w3.org/2000/svg">
<path d="M10.9156 21.8312C10.9156 21.8312 9.35625 21.8312 9.35625 20.2718C9.35625 18.7124 10.9156 14.0343 17.1531 14.0343C23.3906 14.0343 24.95 18.7124 24.95 20.2718C24.95 21.8312 23.3906 21.8312 23.3906 21.8312H10.9156Z" fill="#A6672C"/>
<path d="M17.1531 12.4749C19.7368 12.4749 21.8313 10.3804 21.8313 7.79678C21.8313 5.21312 19.7368 3.11865 17.1531 3.11865C14.5695 3.11865 12.475 5.21312 12.475 7.79678C12.475 10.3804 14.5695 12.4749 17.1531 12.4749Z" fill="#A6672C"/>
<path d="M8.13426 21.8312C7.91471 21.3882 7.79688 20.863 7.79688 20.2718C7.79688 18.1581 8.85577 15.9844 10.8157 14.4709C9.95832 14.1966 8.95876 14.0343 7.79688 14.0343C1.55938 14.0343 0 18.7124 0 20.2718C0 21.8312 1.55938 21.8312 1.55938 21.8312H8.13426Z" fill="#A6672C"/>
<path d="M7.01719 12.4749C9.17024 12.4749 10.9156 10.7295 10.9156 8.57647C10.9156 6.42342 9.17024 4.67803 7.01719 4.67803C4.86414 4.67803 3.11875 6.42342 3.11875 8.57647C3.11875 10.7295 4.86414 12.4749 7.01719 12.4749Z" fill="#A6672C"/>
</svg>
