<svg width="50" height="48" viewBox="0 0 50 48" fill="none" xmlns="http://www.w3.org/2000/svg">
<path d="M25.0519 0C18.3392 0 17.4968 0.0285005 14.8603 0.145C12.229 0.262 10.4329 0.6665 8.86133 1.26C7.23569 1.873 5.8567 2.693 4.48286 4.0275C3.10798 5.3615 2.26349 6.7005 1.63012 8.2785C1.01735 9.805 0.600258 11.5495 0.481823 14.1035C0.363904 16.6635 0.333008 17.482 0.333008 24C0.333008 30.518 0.362874 31.3335 0.482339 33.8935C0.603348 36.4485 1.01993 38.1925 1.63064 39.7185C2.26246 41.297 3.10695 42.636 4.48131 43.97C5.85464 45.305 7.23363 46.127 8.85824 46.74C10.4308 47.3335 12.2275 47.738 14.8582 47.855C17.4947 47.9715 18.3366 48 25.0488 48C31.762 48 32.6018 47.9715 35.2383 47.855C37.8696 47.738 39.6677 47.3335 41.2403 46.74C42.8655 46.127 44.2424 45.305 45.6157 43.97C46.9906 42.636 47.8351 41.297 48.4685 39.719C49.0761 38.1925 49.4932 36.448 49.6168 33.894C49.7352 31.334 49.7661 30.518 49.7661 24C49.7661 17.482 49.7352 16.664 49.6168 14.104C49.4932 11.549 49.0761 9.805 48.4685 8.279C47.8351 6.7005 46.9906 5.3615 45.6157 4.0275C44.2409 2.6925 42.866 1.8725 41.2388 1.26C39.6631 0.6665 37.866 0.262 35.2347 0.145C32.5982 0.0285005 31.7589 0 25.0441 0H25.0519ZM22.8346 4.325C23.4926 4.324 24.2269 4.325 25.0519 4.325C31.6512 4.325 32.4334 4.348 35.0395 4.463C37.4494 4.57 38.7573 4.961 39.6286 5.2895C40.782 5.7245 41.6044 6.2445 42.469 7.0845C43.3341 7.9245 43.8696 8.7245 44.3186 9.8445C44.6569 10.6895 45.0601 11.9595 45.1698 14.2995C45.2882 16.8295 45.314 17.5895 45.314 23.9945C45.314 30.3995 45.2882 31.1595 45.1698 33.6895C45.0596 36.0295 44.6569 37.2995 44.3186 38.1445C43.8706 39.2645 43.3341 40.062 42.469 40.9015C41.6039 41.7415 40.7826 42.2615 39.6286 42.6965C38.7584 43.0265 37.4494 43.4165 35.0395 43.5235C32.4339 43.6385 31.6512 43.6635 25.0519 43.6635C18.452 43.6635 17.6698 43.6385 15.0642 43.5235C12.6543 43.4155 11.3464 43.0245 10.4746 42.696C9.32117 42.261 8.49727 41.741 7.63219 40.901C6.7671 40.061 6.23157 39.263 5.78255 38.1425C5.44424 37.2975 5.04104 36.0275 4.93136 33.6875C4.81293 31.1575 4.78924 30.3975 4.78924 23.9885C4.78924 17.5795 4.81293 16.8235 4.93136 14.2935C5.04156 11.9535 5.44424 10.6835 5.78255 9.8375C6.23054 8.7175 6.7671 7.9175 7.63219 7.0775C8.49727 6.2375 9.32117 5.7175 10.4746 5.2815C11.3459 4.9515 12.6543 4.5615 15.0642 4.454C17.3443 4.354 18.228 4.324 22.8346 4.319V4.325ZM38.2455 8.31C36.608 8.31 35.2795 9.5985 35.2795 11.189C35.2795 12.779 36.608 14.069 38.2455 14.069C39.883 14.069 41.2115 12.779 41.2115 11.189C41.2115 9.599 39.883 8.309 38.2455 8.309V8.31ZM25.0519 11.675C18.0421 11.675 12.3588 17.1935 12.3588 24C12.3588 30.8065 18.0421 36.3225 25.0519 36.3225C32.0617 36.3225 37.7429 30.8065 37.7429 24C37.7429 17.1935 32.0611 11.675 25.0513 11.675H25.0519ZM25.0519 16C29.6018 16 33.2908 19.5815 33.2908 24C33.2908 28.418 29.6018 32 25.0519 32C20.5014 32 16.8129 28.418 16.8129 24C16.8129 19.5815 20.5014 16 25.0519 16Z" fill="#A6672C"/>
</svg>
