<svg width="114" height="58" viewBox="0 0 114 58" fill="none" xmlns="http://www.w3.org/2000/svg">
<path fill-rule="evenodd" clip-rule="evenodd" d="M50.5893 41.9915C54.4464 45.8672 48.55 45.2512 60.999 52.7263C68.6593 57.3245 68.8041 54.8404 72.6101 56.5361C74.3654 57.3194 75.5725 57.1369 77.8419 56.9721C89.6462 56.1128 95.8267 56.0976 103.564 48.4704C111.323 40.8178 119.591 41.3882 108.793 31.9283C104.035 27.7611 106.694 28.1616 104.203 25.6927C100.411 21.9412 101.979 22.0705 99.4111 19.67C96.4913 16.9426 95.0541 19.1478 92.2536 16.5167C87.8369 12.3698 87.6182 16.1796 84.0111 14.8767C80.9009 13.7538 77.8107 13.9363 74.621 15.4267C70.5708 17.3228 72.5391 17.9134 66.6341 18.6105C64.4556 9.58403 68.8808 11.9465 66.1399 9.26211C64.0608 7.22667 62.3396 4.61835 60.1185 2.9758C56.5766 0.359887 54.4691 2.1596 50.2513 1.1254C45.5222 -0.0355389 44.5366 -0.387881 39.0975 0.494229C35.2574 1.11779 31.7496 1.99737 27.8044 2.36238C23.1748 2.7933 18.1304 6.0784 15.0998 8.50674L6.07051 17.8525C3.11944 21.3151 2.79849 30.2832 1.70781 35.6393C0.844362 39.8749 -2.77417 41.3045 4.19875 41.8774C5.87737 42.0143 7.28899 42.795 8.2689 43.6467C10.1208 45.2512 9.46182 44.9851 12.0096 46.1992C22.1437 51.023 31.8945 51.1193 43.037 46.8887C47.1185 45.3425 48.6522 45.089 50.5893 41.9915Z" fill="#262626"/>
<path fill-rule="evenodd" clip-rule="evenodd" d="M4.67591 28.263C5.71546 29.8244 5.96257 30.8738 8.18368 29.8701C10.0015 29.0488 10.5468 27.8574 12.1601 28.1134C12.5776 30.1945 11.7965 30.1058 11.6432 31.7179C13.6228 32.306 18.1531 32.0348 20.698 32.5544C20.7179 34.6836 18.7098 34.5062 16.216 35.1424C15.9547 36.1031 15.8553 35.9865 15.7048 36.24L3.94312 39.3325C5.9512 40.0777 20.9593 37.4491 22.6408 36.9396C25.8872 35.9561 27.3159 35.0157 29.9687 33.761C36.473 30.6863 36.3225 32.7901 43.8606 26.7953C50.132 21.8094 61.4023 17.1099 61.3569 13.8755C56.8124 14.8564 43.4715 24.5444 41.3754 24.8613C42.3183 24.4354 43.2386 23.2796 44.0339 22.6864C44.9683 21.9868 46.2294 21.272 47.2747 20.6155C50.791 18.4051 57.389 14.7905 60.1554 12.2583C62.6634 9.96426 62.99 9.12017 60.3486 6.70704C59.0278 8.0733 60.2662 8.60814 56.0938 11.7716C54.489 12.9883 51.7936 14.9071 49.5526 15.4825L51.0125 14.0428C51.5948 13.6625 52.0804 13.3964 52.6286 13.0136C55.4916 11.0137 59.9367 8.23046 58.9483 4.10887C53.9778 1.82501 51.9498 3.29013 47.1043 4.20266L47.5473 3.36364C47.5843 3.2952 47.6496 3.19381 47.6865 3.12284C47.9791 2.5956 47.9649 2.94286 48.1381 2.29142C44.0367 1.64505 42.1337 2.41562 38.0494 2.95807C34.3172 3.45489 31.8405 5.74382 30.2499 5.75649L32.2921 3.59177C27.0802 4.13422 25.447 3.99734 21.5643 6.65635C21.8853 7.58662 21.4677 6.7045 22.2744 7.30018C23.0185 7.85023 22.5556 7.09233 23.0697 7.83503C18.6416 9.77415 17.4601 8.40282 12.9895 12.7449C10.6036 15.0617 7.48212 17.1808 5.91996 20.6687C5.07639 22.5724 3.89767 25.9893 4.67591 28.263Z" fill="#D99C63"/>
<path fill-rule="evenodd" clip-rule="evenodd" d="M73.8939 18.504C74.8483 19.812 75.973 19.4622 76.5922 22.1592C73.59 22.2124 73.6525 19.6143 67.6027 20.7904C63.9018 21.5103 62.6946 22.6915 62.3396 25.8448C63.6774 25.7384 65.4128 24.1364 66.6966 27.1781C65.0152 27.1553 64.4386 27.3708 62.9957 27.457C61.2376 27.5634 61.5358 27.1807 59.8174 27.3226C58.2893 29.244 57.9343 31.5152 59.8004 33.4391C61.3057 34.9878 60.1611 33.8624 61.6352 34.1311C63.6518 37.3452 61.9136 37.4365 66.6 38.458C69.7982 39.1551 71.4541 38.9219 73.6951 40.6202L72.8487 41.0181C72.0704 41.3603 72.5703 40.97 71.8177 41.4541L82.3552 43.6822C84.5962 43.8977 82.9374 43.667 83.656 43.4313C84.065 43.2969 83.1022 43.0206 84.9285 43.1981C85.1188 43.2158 86.0504 43.4718 86.4395 43.5529C87.3711 43.7456 88.8055 43.9686 89.6803 43.9408C91.2993 43.8926 91.4214 43.4566 92.8075 43.1246C94.0288 42.8305 94.0203 42.8584 95.0428 43.3223L96.0141 43.7861C98.9283 44.2677 105.529 40.605 106.634 39.1018C108.551 36.4961 106.151 35.4314 104.484 31.87C103.856 30.5317 104.049 29.7256 103.603 28.5672C101.465 28.2554 101.635 28.7624 99.5816 29.1223C99.9962 27.8397 100.158 28.3517 100.152 27.2744L98.6528 25.6725L100.008 25.4215C100.059 25.4139 100.187 25.4266 100.266 25.3936C98.6755 19.1808 97.0849 21.0794 91.3816 20.0224C90.3904 18.7879 90.7738 16.4939 87.4563 17.0592C85.5335 17.3862 82.4461 18.7144 80.7447 18.0427C81.5798 17.1657 81.8695 17.7182 82.341 16.5928C77.3988 15.8754 77.0325 17.2873 73.8939 18.504Z" fill="#F5E3A4"/>
<path fill-rule="evenodd" clip-rule="evenodd" d="M9.72882 41.3701C12.3163 45.7756 16.4632 47.6108 21.8853 48.4574C28.5202 49.4941 29.7415 47.3877 34.9109 46.6501C36.2856 46.4549 37.9699 46.1127 39.089 45.5627C37.4331 44.2268 33.0874 44.7236 31.6389 42.5133C34.57 42.7693 38.075 44.7895 41.2078 44.2217C44.7184 43.583 47.9336 42.095 50.4274 40.9012C49.6293 31.6339 46.38 27.3729 60.1384 20.9979L64.129 19.5962L63.7143 17.5328C63.2258 16.3237 63.5524 17.074 63.2087 16.633C62.3368 17.1298 63.0383 16.6862 62.4277 17.1703L60.6354 18.7647C59.6953 19.5201 58.7182 20.06 57.5878 20.6456C53.6597 22.6759 49.5441 25.482 45.9284 28.0446C40.8698 31.6289 41.7248 32.2499 33.539 34.8531C30.8947 35.6947 27.9862 35.976 25.5209 36.8531C20.2635 38.7187 11.5324 40.1027 9.72882 41.3701Z" fill="#BB7533"/>
<path fill-rule="evenodd" clip-rule="evenodd" d="M57.1021 45.4997L54.3924 44.6937C55.5626 48.0548 58.6557 48.8862 61.2148 50.9698C63.4501 52.7898 66.5347 54.6656 71.1587 54.6149C70.139 52.0725 68.0997 52.0446 67.0829 50.5921C73.4281 51.4413 68.8865 56.3512 83.1902 55.0052L81.8382 53.4793C85.4426 53.6162 89.1719 55.2536 92.637 53.4336C93.0034 53.241 93.367 53.0078 93.6226 52.5921C94.0657 51.8697 93.7334 52.3488 93.918 51.8367L94.185 51.018C97.0082 50.7873 99.1015 50.3209 100.232 48.3032C97.2496 49.198 88.7515 50.0624 85.1216 49.8317C81.1509 49.5782 70.3208 46.7747 66.5972 45.3324C64.1062 44.3692 63.9614 43.4161 61.1694 43.0156C56.0341 42.2755 55.3752 39.8573 52.4326 36.2807C51.6828 37.5176 52.6826 40.4757 53.5233 41.8902C54.9974 44.3768 56.9118 43.3325 57.1021 45.4997Z" fill="#BB7533"/>
<path fill-rule="evenodd" clip-rule="evenodd" d="M112.076 40.0568C112.099 37.1823 109.23 33.6235 107.017 32.4676C107.498 34.5715 113.718 40.5486 98.9596 44.3026C88.814 46.883 85.5733 45.1315 78.2197 43.8032C71.5734 42.6043 65.0635 41.3673 60.9905 37.8794C59.5135 36.6145 56.1393 33.6945 55.912 31.0431C55.6621 28.1382 57.5708 26.7643 58.7467 25.4487C58.8205 25.3651 59.3431 24.7542 59.417 24.6452C60.0447 23.7378 59.5959 24.6401 60.056 23.5198C54.3897 24.6097 50.1548 29.725 52.3787 33.4993C53.3103 35.0835 59.4425 40.7843 62.5015 42.0263C66.1513 43.5067 64.396 44.0795 71.4087 45.6258C80.4522 47.6181 83.284 48.3329 93.0546 47.3317C101.368 46.4775 104.731 44.6549 112.076 40.0568Z" fill="#D99C63"/>
<path fill-rule="evenodd" clip-rule="evenodd" d="M15.7104 36.2398C15.8581 35.9837 15.9604 36.1029 16.2217 35.1422C18.7155 34.506 20.7207 34.6834 20.7037 32.5542C18.1588 32.0345 13.6257 32.3057 11.6488 31.7177C11.7994 30.1055 12.5833 30.1943 12.1658 28.1132C10.5525 27.8572 10.0071 29.0485 8.18934 29.8698C5.96823 30.871 5.72396 29.8242 4.68157 28.2627C4.43731 28.7089 4.65885 27.9028 4.34074 29.1803C3.91754 30.8787 4.07091 35.5706 4.30382 37.1396C12.3589 37.1852 13.8983 34.7062 15.7104 36.2398Z" fill="#BB7533"/>
<path fill-rule="evenodd" clip-rule="evenodd" d="M66.6881 31.5658L68.2134 32.6254C69.0257 33.1577 68.8893 32.9523 69.3978 33.6317C70.2044 34.709 70.0226 35.586 70.9315 36.5923C72.7578 38.6176 75.6578 37.4643 78.7281 37.8648L78.9923 39.4414C78.998 39.4769 78.9951 39.5758 79.0264 39.6341C86.5162 35.5632 88.3681 38.2425 91.1516 36.7571C90.0013 34.4428 76.2486 36.5974 73.5304 35.3756C71.9171 34.6507 71.3348 33.1247 70.8179 30.9879C68.1083 31.6697 71.1076 32.2654 66.6881 31.5658Z" fill="#262626"/>
<path fill-rule="evenodd" clip-rule="evenodd" d="M76.1293 30.1029L76.0611 31.6263C77.7454 31.1269 78.0521 30.4197 79.8302 29.748C80.6368 29.4438 83.622 28.511 84.6814 28.3894C90.0041 27.7785 89.6917 31.7885 92.1201 32.5439C93.7107 31.6998 92.0037 32.8329 93.1654 31.0889C94.8866 30.9596 95.6023 30.9596 96.497 29.8747C94.4122 28.6783 93.1852 30.7138 90.4387 28.7214C85.7295 25.307 81.8212 27.0358 77.5267 27.6568C73.999 28.1663 73.5815 27.2918 70.6873 26.7899C72.5278 28.7544 72.7266 29.459 76.1293 30.1029Z" fill="#262626"/>
<path fill-rule="evenodd" clip-rule="evenodd" d="M79.7506 20.0321C80.2164 20.861 80.5459 20.4985 81.1282 21.6392C79.7847 22.098 78.9525 22.8685 78.5577 23.9763C80.8612 23.8013 81.7843 22.0143 85.1301 22.1056C88.0301 22.1841 89.1179 23.3704 92.14 23.6797C91.3191 22.207 89.0696 20.4655 87.0899 20.0448C82.9772 19.1753 83.727 19.3376 79.7506 20.0321Z" fill="#262626"/>
<path fill-rule="evenodd" clip-rule="evenodd" d="M95.6506 36.296C95.6818 36.3796 95.7557 36.4101 95.7869 36.5343C95.8153 36.6534 95.9005 36.7168 95.9261 36.7624C95.963 36.8232 96.1618 37.1021 96.2016 37.1882C96.9827 38.9119 95.145 39.1907 96.7839 40.7091C97.8859 39.4239 97.0082 38.2377 99.2322 36.7294C102.041 34.8258 101.726 34.7168 103.868 34.0958C103.058 32.8715 104.177 34.0071 103.084 33.3734C102.439 32.9982 102.834 33.381 102.232 33.0286C101.183 32.4177 102.149 32.7169 101.078 31.7714C99.7037 33.2061 102.161 34.4329 95.6506 36.296Z" fill="#262626"/>
</svg>
