<svg width="60" height="31" viewBox="0 0 60 31" fill="none" xmlns="http://www.w3.org/2000/svg">
<path fill-rule="evenodd" clip-rule="evenodd" d="M26.6341 22.1076C28.6648 24.148 25.5605 23.8238 32.1146 27.7592C36.1476 30.1801 36.2238 28.8722 38.2276 29.765C39.1517 30.1774 39.7873 30.0813 40.982 29.9946C47.1967 29.5422 50.4506 29.5341 54.5239 25.5186C58.6092 21.4897 62.9622 21.7899 57.2769 16.8095C54.7722 14.6156 56.1718 14.8264 54.8604 13.5266C52.8641 11.5515 53.6895 11.6196 52.3377 10.3558C50.8005 8.91988 50.0439 10.0809 48.5695 8.69568C46.2442 6.51241 46.129 8.51819 44.2299 7.83225C42.5925 7.24106 40.9656 7.33714 39.2863 8.12183C37.1539 9.12005 38.1902 9.43099 35.0814 9.79799C33.9344 5.04578 36.2642 6.28955 34.8212 4.8763C33.7266 3.80468 32.8204 2.43146 31.651 1.56669C29.7863 0.189473 28.6768 1.13698 26.4562 0.592498C23.9664 -0.0187104 23.4475 -0.204211 20.5839 0.260201C18.5622 0.588492 16.7155 1.05157 14.6384 1.24374C12.201 1.47061 9.54525 3.20014 7.94971 4.47861L3.19599 9.39897C1.64231 11.2219 1.47334 15.9434 0.899124 18.7633C0.444537 20.9932 -1.46054 21.7459 2.21055 22.0475C3.0943 22.1196 3.83749 22.5306 4.35339 22.979C5.32836 23.8238 4.98143 23.6836 6.32277 24.3229C11.6582 26.8624 16.7917 26.9132 22.658 24.6858C24.8068 23.8718 25.6143 23.7383 26.6341 22.1076Z" fill="#262626"/>
<path fill-rule="evenodd" clip-rule="evenodd" d="M2.46176 14.8798C3.00906 15.7019 3.13916 16.2544 4.30852 15.7259C5.26555 15.2935 5.55266 14.6663 6.40202 14.8011C6.62183 15.8967 6.21061 15.85 6.12986 16.6988C7.17212 17.0084 9.55721 16.8656 10.897 17.1392C10.9075 18.2602 9.8503 18.1667 8.53738 18.5017C8.39981 19.0075 8.34747 18.9461 8.26821 19.0796L2.07596 20.7077C3.13318 21.1 11.0346 19.7161 11.9199 19.4479C13.6291 18.9301 14.3812 18.435 15.7779 17.7744C19.2022 16.1556 19.123 17.2633 23.0916 14.1071C26.3934 11.4822 32.3269 9.00796 32.303 7.30512C29.9104 7.82157 22.8868 12.9221 21.7832 13.0889C22.2797 12.8647 22.7642 12.2562 23.1829 11.9439C23.6748 11.5756 24.3388 11.1992 24.8891 10.8536C26.7403 9.6899 30.214 7.78688 31.6705 6.4537C32.9909 5.24596 33.1628 4.80157 31.7722 3.53111C31.0768 4.25041 31.7288 4.53199 29.5321 6.19747C28.6872 6.83804 27.2682 7.84826 26.0883 8.1512L26.8569 7.3932C27.1635 7.19302 27.4192 7.05289 27.7078 6.85138C29.2151 5.79845 31.5553 4.33315 31.0349 2.16323C28.4181 0.960829 27.3504 1.73218 24.7993 2.2126L25.0326 1.77088C25.052 1.73485 25.0864 1.68147 25.1059 1.6441C25.2599 1.36652 25.2524 1.54935 25.3436 1.20638C23.1843 0.86608 22.1825 1.27177 20.0321 1.55736C18.0673 1.81892 16.7633 3.02399 15.9259 3.03066L17.0011 1.89099C14.2571 2.17657 13.3973 2.10451 11.3531 3.50442C11.5221 3.99419 11.3023 3.52977 11.727 3.84338C12.1187 4.13297 11.875 3.73395 12.1457 4.12497C9.81441 5.14587 9.19234 4.4239 6.83866 6.70992C5.58256 7.92967 3.93917 9.04533 3.11673 10.8816C2.67261 11.8838 2.05204 13.6828 2.46176 14.8798Z" fill="#D99C63"/>
<path fill-rule="evenodd" clip-rule="evenodd" d="M38.9035 9.74196C39.4059 10.4306 39.9981 10.2464 40.3241 11.6663C38.7435 11.6944 38.7764 10.3265 35.5913 10.9457C33.6428 11.3247 33.0073 11.9466 32.8204 13.6067C33.5247 13.5507 34.4384 12.7073 35.1143 14.3087C34.229 14.2967 33.9255 14.4101 33.1658 14.4555C32.2402 14.5115 32.3972 14.31 31.4925 14.3847C30.688 15.3963 30.5011 16.592 31.4836 17.6049C32.2761 18.4203 31.6735 17.8278 32.4496 17.9692C33.5113 19.6614 32.5961 19.7095 35.0634 20.2473C36.7472 20.6143 37.619 20.4915 38.7988 21.3856L38.3532 21.5951C37.9435 21.7753 38.2067 21.5698 37.8104 21.8247L43.3581 22.9977C44.538 23.1111 43.6647 22.9897 44.043 22.8656C44.2584 22.7949 43.7514 22.6494 44.7129 22.7428C44.8131 22.7522 45.3036 22.8869 45.5085 22.9296C45.9989 23.0311 46.7541 23.1485 47.2147 23.1338C48.067 23.1085 48.1313 22.8789 48.861 22.7041C49.504 22.5493 49.4996 22.564 50.0379 22.8082L50.5493 23.0524C52.0835 23.306 55.5587 21.3776 56.1404 20.5862C57.1498 19.2144 55.8862 18.6539 55.0084 16.7789C54.678 16.0742 54.7796 15.6499 54.5449 15.04C53.4189 14.8758 53.5086 15.1427 52.4275 15.3322C52.6458 14.657 52.731 14.9266 52.728 14.3594L51.9385 13.516L52.6518 13.3839C52.6787 13.3799 52.746 13.3865 52.7878 13.3692C51.9504 10.0983 51.113 11.0978 48.1104 10.5413C47.5885 9.89142 47.7904 8.68369 46.0438 8.98128C45.0315 9.15344 43.406 9.85272 42.5103 9.49908C42.9499 9.03733 43.1024 9.32826 43.3507 8.73573C40.7488 8.35806 40.5559 9.10139 38.9035 9.74196Z" fill="#F5E3A4"/>
<path fill-rule="evenodd" clip-rule="evenodd" d="M5.12201 21.7804C6.48427 24.0998 8.66749 25.066 11.5221 25.5117C15.0153 26.0576 15.6583 24.9486 18.3798 24.5602C19.1035 24.4575 19.9903 24.2773 20.5795 23.9877C19.7077 23.2844 17.4198 23.546 16.6572 22.3823C18.2004 22.5171 20.0456 23.5807 21.695 23.2818C23.5432 22.9455 25.236 22.1621 26.5489 21.5335C26.1287 16.6546 24.418 14.4112 31.6615 11.0549L33.7625 10.3169L33.5442 9.23064C33.287 8.59407 33.4589 8.98909 33.278 8.75688C32.8189 9.01845 33.1883 8.78491 32.8668 9.0398L31.9232 9.87921C31.4282 10.2769 30.9138 10.5611 30.3187 10.8694C28.2506 11.9384 26.0839 13.4157 24.1803 14.7649C21.517 16.6519 21.9671 16.9788 17.6575 18.3494C16.2654 18.7924 14.7341 18.9406 13.4362 19.4023C10.6683 20.3845 6.07155 21.1132 5.12201 21.7804Z" fill="#BB7533"/>
<path fill-rule="evenodd" clip-rule="evenodd" d="M30.063 23.9546L28.6364 23.5302C29.2525 25.2998 30.8809 25.7375 32.2282 26.8345C33.4051 27.7927 35.029 28.7802 37.4635 28.7535C36.9266 27.415 35.853 27.4003 35.3176 26.6356C38.6582 27.0827 36.2672 29.6676 43.7978 28.959L43.086 28.1556C44.9836 28.2277 46.947 29.0898 48.7713 28.1316C48.9642 28.0302 49.1556 27.9074 49.2902 27.6886C49.5235 27.3082 49.3485 27.5604 49.4457 27.2909L49.5863 26.8598C51.0727 26.7384 52.1747 26.4928 52.7699 25.4306C51.1998 25.9016 46.7257 26.3567 44.8146 26.2353C42.7241 26.1018 37.0223 24.6258 35.0619 23.8665C33.7505 23.3594 33.6742 22.8576 32.2043 22.6468C29.5007 22.2571 29.1538 20.984 27.6046 19.1009C27.2098 19.7522 27.7362 21.3096 28.1788 22.0542C28.9549 23.3634 29.9628 22.8136 30.063 23.9546Z" fill="#BB7533"/>
<path fill-rule="evenodd" clip-rule="evenodd" d="M59.0055 21.089C59.0175 19.5757 57.5072 17.702 56.3423 17.0935C56.595 18.2011 59.8698 21.3479 52.1 23.3243C46.7586 24.6829 45.0524 23.7607 41.1809 23.0614C37.6818 22.4302 34.2545 21.779 32.1101 19.9427C31.3325 19.2767 29.5561 17.7394 29.4364 16.3435C29.3048 14.8141 30.3097 14.0908 30.9288 13.3982C30.9677 13.3542 31.2428 13.0325 31.2817 12.9752C31.6122 12.4974 31.3759 12.9725 31.6182 12.3826C28.6349 12.9565 26.4054 15.6495 27.5762 17.6366C28.0667 18.4707 31.2952 21.472 32.9057 22.1259C34.8272 22.9053 33.9031 23.2069 37.5951 24.0209C42.3563 25.0699 43.8471 25.4462 48.9912 24.9191C53.3681 24.4693 55.1386 23.5098 59.0055 21.089Z" fill="#D99C63"/>
<path fill-rule="evenodd" clip-rule="evenodd" d="M8.2712 19.0794C8.34896 18.9446 8.40279 19.0074 8.54036 18.5016C9.85328 18.1666 10.909 18.26 10.9 17.139C9.56019 16.8655 7.17361 17.0083 6.13284 16.6986C6.2121 15.8499 6.62481 15.8966 6.405 14.801C5.55564 14.6662 5.26853 15.2934 4.3115 15.7258C3.14214 16.2529 3.01354 15.7018 2.46474 14.8797C2.33614 15.1146 2.45278 14.6902 2.2853 15.3628C2.06249 16.2569 2.14324 18.7271 2.26586 19.5532C6.50668 19.5772 7.31716 18.272 8.2712 19.0794Z" fill="#BB7533"/>
<path fill-rule="evenodd" clip-rule="evenodd" d="M35.1098 16.6187L35.9128 17.1765C36.3405 17.4568 36.2687 17.3487 36.5364 17.7063C36.961 18.2735 36.8653 18.7352 37.3438 19.265C38.3054 20.3313 39.8321 19.7241 41.4486 19.935L41.5877 20.765C41.5907 20.7837 41.5892 20.8358 41.6056 20.8665C45.5488 18.7232 46.5238 20.1338 47.9893 19.3518C47.3836 18.1334 40.1432 19.2677 38.7121 18.6245C37.8627 18.2428 37.5562 17.4394 37.284 16.3144C35.8575 16.6734 37.4366 16.987 35.1098 16.6187Z" fill="#262626"/>
<path fill-rule="evenodd" clip-rule="evenodd" d="M40.0804 15.8485L40.0445 16.6505C40.9312 16.3876 41.0927 16.0153 42.0288 15.6617C42.4535 15.5015 44.0251 15.0104 44.5829 14.9464C47.3851 14.6247 47.2207 16.7359 48.4992 17.1336C49.3366 16.6892 48.4379 17.2858 49.0495 16.3676C49.9557 16.2996 50.3325 16.2996 50.8035 15.7284C49.7059 15.0985 49.0599 16.1701 47.6139 15.1212C45.1346 13.3236 43.077 14.2337 40.8161 14.5607C38.9588 14.8289 38.739 14.3685 37.2153 14.1043C38.1842 15.1385 38.2889 15.5095 40.0804 15.8485Z" fill="#262626"/>
<path fill-rule="evenodd" clip-rule="evenodd" d="M41.9869 10.5465C42.2321 10.9828 42.4056 10.792 42.7122 11.3925C42.0049 11.6341 41.5667 12.0398 41.3589 12.623C42.5716 12.5309 43.0576 11.59 44.8191 11.6381C46.3459 11.6795 46.9186 12.304 48.5096 12.4668C48.0775 11.6915 46.8932 10.7747 45.8509 10.5531C43.6856 10.0954 44.0804 10.1808 41.9869 10.5465Z" fill="#262626"/>
<path fill-rule="evenodd" clip-rule="evenodd" d="M50.3579 19.109C50.3743 19.1531 50.4132 19.1691 50.4297 19.2345C50.4446 19.2972 50.4895 19.3306 50.5029 19.3546C50.5224 19.3866 50.627 19.5334 50.648 19.5788C51.0592 20.4862 50.0917 20.633 50.9545 21.4324C51.5347 20.7558 51.0727 20.1313 52.2435 19.3372C53.7224 18.335 53.5564 18.2776 54.6839 17.9507C54.2578 17.3061 54.8469 17.904 54.2712 17.5703C53.9318 17.3728 54.1396 17.5743 53.8226 17.3888C53.2708 17.0672 53.7793 17.2247 53.2155 16.7269C52.4918 17.4823 53.7852 18.1282 50.3579 19.109Z" fill="#262626"/>
</svg>
