<svg width="182" height="80" viewBox="0 0 182 80" fill="none" xmlns="http://www.w3.org/2000/svg">
<path fill-rule="evenodd" clip-rule="evenodd" d="M122.585 58.5489C113.466 58.5489 52.2911 58.5489 43.1768 58.5489C41.7579 58.5489 40.5435 58.5489 39.3291 58.5489C37.3051 58.5489 35.4813 58.5489 33.8579 58.9977C32.6436 59.2677 31.2247 59.8077 30.8198 60.435C30.2148 61.7812 33.4531 62.8575 36.4912 62.8575C45.6098 62.8575 106.58 62.8575 115.9 62.8575C117.113 62.8575 118.532 62.8575 119.747 62.8575C121.571 62.8575 123.407 62.7814 125.218 62.4087C126.45 62.1539 127.8 61.5987 128.056 60.9712C128.61 59.6213 125.623 58.5489 122.585 58.5489Z" fill="#1D1D1B"/>
<path fill-rule="evenodd" clip-rule="evenodd" d="M61.6099 45.7104C61.3074 46.6991 66.1351 49.4788 67.0427 49.4788C71.2696 49.4788 96.8782 49.4788 101.101 49.4788C101.804 49.4788 99.5968 47.855 99.4902 47.7715C98.6935 47.1402 96.9763 45.7065 95.7704 45.7065C93.8572 45.7065 70.3621 45.7065 68.3508 45.7065C71.6701 34.306 74.8872 22.9968 78.2065 11.6837C78.7093 9.88887 79.2121 8.09401 79.8172 6.29913C80.0174 5.4017 75.2919 2.52685 74.2864 2.52685C70.1617 2.52685 65.939 2.52685 61.8144 2.52685C61.1114 2.52685 63.2206 4.14299 63.4251 4.23425C64.2305 4.8617 65.8411 6.29913 67.047 6.29913C69.0581 6.29913 71.0694 6.29913 72.9825 6.29913C69.7655 17.6997 66.4461 29.0089 63.1269 40.4094C62.6155 42.1206 62.1127 43.9154 61.6099 45.7104Z" fill="#1D1D1B"/>
<path fill-rule="evenodd" clip-rule="evenodd" d="M36.0865 48.9432C39.3035 51.278 44.7363 49.6619 47.6552 47.597C49.5683 46.2509 50.6719 44.4559 51.375 42.4785C52.5809 39.2462 53.0836 35.8352 53.4885 32.5155C54.1915 27.1308 54.5963 21.7424 54.6942 16.3578C54.6942 14.0229 54.6942 11.6881 54.2937 9.35702C54.0935 7.74087 53.7909 6.12472 52.7854 4.6873C49.6663 0.557564 41.9241 2.98369 39.0052 6.03346C36.4912 8.9045 34.9829 12.4068 34.3778 15.9091C33.6747 19.9476 33.1719 24.0773 32.8694 28.2071C32.4688 31.9793 32.6692 35.7478 32.8694 39.5163C33.0697 42.4785 33.0697 46.8783 36.0865 48.9432ZM39.508 27.1271C39.8106 22.9974 40.4113 18.7801 41.0165 14.6504C41.5193 11.8668 42.5248 8.81704 44.6383 6.48218C44.6383 6.48218 44.7406 6.39091 44.7406 6.30345C45.2434 6.39472 45.6439 6.48218 45.8484 6.66091C46.6538 7.20089 46.9562 8.18579 47.2545 8.99577C48.2602 12.3155 48.0599 15.9091 47.9576 19.2289C47.8554 23.8073 47.4548 28.3858 46.9521 32.9643C46.5515 36.1052 46.1467 39.2462 45.2434 42.3911C44.9408 43.2885 44.7406 44.0073 44.3401 44.8134C44.1398 45.0834 43.9395 45.4409 43.735 45.7108L43.6327 45.8896C43.5304 45.9808 43.4325 46.1596 43.3302 46.1596C43.3302 46.2509 43.2279 46.2509 43.2279 46.3383C43.2279 46.3383 43.1257 46.3383 43.0276 46.4257C42.9254 46.4257 42.9254 46.4257 42.9254 46.4257C42.8231 46.4257 42.4226 46.3383 42.2224 46.247C42.0221 46.0683 41.6172 45.7071 41.417 45.437C39.508 43.1023 39.6061 39.2425 39.508 36.4589C39.3035 33.3216 39.2056 30.2719 39.508 27.1271Z" fill="#1D1D1B"/>
<path fill-rule="evenodd" clip-rule="evenodd" d="M25.1485 61.3322C25.1485 54.8676 25.1485 48.3156 25.1485 41.851C25.1485 31.5266 25.1485 21.1148 25.1485 10.7905C25.1485 8.45561 25.1485 6.12073 25.1485 3.69841C25.1485 2.17353 23.6401 0.736111 22.1316 0.196127C20.8235 -0.252591 19.0126 0.0174033 19.0126 1.54229C19.0126 8.00689 19.0126 14.559 19.0126 21.0236C19.0126 28.0243 19.0126 35.029 19.0126 42.1172C18.9103 41.8471 18.8124 41.4897 18.7101 41.2196C15.2885 30.8954 11.8711 20.571 8.44957 10.2505C7.64425 7.82816 6.94118 5.4933 6.13585 3.07097C5.63306 1.63355 4.32492 0.466127 2.71426 0.108673C1.5084 -0.161319 0 0.108672 0 1.54609C0 8.01069 0 14.5627 0 21.0273C0 31.3517 0 41.6723 0 52.0878C0 54.4227 0 56.7576 0 59.1799C0 60.7048 1.5084 62.1422 3.01679 62.6822C4.32492 63.1309 6.23385 62.8609 6.23385 61.336C6.23385 54.8715 6.23385 48.3193 6.23385 41.8548C6.23385 34.854 6.23385 27.7619 6.23385 20.7611C6.33611 21.0312 6.43412 21.3012 6.43412 21.6586C9.8557 31.9829 13.273 42.3035 16.6946 52.6279C17.4999 55.0502 18.3053 57.385 19.0084 59.8111C19.5112 61.1573 20.8193 62.4159 22.4299 62.7734C23.6401 63.0358 25.1485 62.6783 25.1485 61.3322Z" fill="#1D1D1B"/>
<path d="M22.8986 77.0413C22.8815 77.0108 22.8474 76.9842 22.8346 76.969C22.6387 76.7218 22.5237 76.7218 21.9995 76.7218C21.8206 76.7218 21.5266 76.7218 21.1474 76.737C20.7723 76.7523 20.474 76.7675 20.278 76.7675C20.0181 76.7675 19.8179 76.7675 19.6901 76.7523C19.541 76.3568 19.46 75.8891 19.46 75.3643C19.46 75.1171 19.477 74.752 19.5111 74.2691C19.5451 73.7862 19.5622 73.4211 19.5622 73.1739C19.5622 72.9267 19.5451 72.3868 19.5111 71.5654L19.46 70.3372C19.4429 70.09 19.4429 69.915 19.4429 69.7819C19.4259 69.7097 19.264 69.6641 18.9828 69.6641C18.6376 69.6641 18.4117 69.7819 18.2797 69.9987C18.2285 70.0556 18.2157 70.1888 18.2157 70.3941C18.2157 70.512 18.2157 70.687 18.2328 70.9037C18.2498 71.1357 18.2498 71.3144 18.2498 71.4285C18.2498 72.4058 18.2498 72.9914 18.2669 73.1663C18.3181 74.0296 18.3479 74.7293 18.3479 75.2844C18.3479 75.4442 18.3479 75.6799 18.3308 75.9841C18.3138 76.3074 18.3138 76.5393 18.3138 76.6991C18.3138 76.8587 18.3648 77.2238 18.4629 77.8247C18.4799 77.9273 18.5268 77.9995 18.578 78.0452C18.71 78.1783 18.9529 78.2353 19.2981 78.2353C19.315 78.2353 21.4244 77.9882 22.1444 77.8855C22.3405 77.8855 22.4896 77.8855 22.6046 77.8702C22.8177 77.8589 22.8517 77.3759 22.8986 77.0413Z" fill="#1D1D1B"/>
<path d="M31.4462 74.3678L31.4121 74.075C31.3951 73.8278 31.3951 73.6376 31.3951 73.5046C31.1991 71.7059 29.9549 69.603 27.6454 69.603C26.8614 69.603 26.1881 69.8235 25.6469 70.276C24.5519 71.1811 23.7168 73.3448 23.7168 74.7328V75.1283C23.7168 77.0411 24.88 78.2845 26.4353 78.6192C26.4523 78.6192 26.4992 78.6345 26.5973 78.6496L26.7591 78.68C29.1665 78.68 30.3128 78.0222 30.7858 76.9117C31.0371 76.368 31.4462 74.8469 31.4462 74.3678ZM30.1508 74.132C30.1508 75.6949 29.4478 77.4061 27.9267 77.4061C25.6512 77.4061 24.7351 76.5885 24.7351 74.5579C24.7522 74.5123 24.7522 74.4704 24.7692 74.4134C24.7692 74.3564 24.7692 74.3107 24.7863 74.269C25.1314 72.6185 25.8516 70.8502 27.4366 70.8502C28.0417 70.8502 28.9279 71.2458 29.3838 71.6527C29.435 71.6983 29.4989 71.7857 29.597 71.9454C29.9719 72.5272 30.1508 73.2574 30.1508 74.132Z" fill="#1D1D1B"/>
<path d="M38.3874 69.6908C38.3234 69.0899 38.1914 68.801 37.6033 68.801C37.4073 68.801 37.2412 68.8466 37.1303 68.9188L37.0665 69.1243C37.0153 69.2268 37.0026 69.2991 37.0026 69.3713C37.0026 69.7061 37.1346 69.957 37.4116 70.1167C37.8803 70.1167 38.2042 69.9685 38.3874 69.6908ZM39.0393 73.1551C39.0222 72.733 38.8603 72.5277 38.5791 72.5277C38.4172 72.5277 38.2042 72.6304 37.957 72.8357C37.94 72.8052 37.94 72.7481 37.94 72.6759C37.94 72.5162 37.957 72.2653 37.9911 71.9307C38.0252 71.6074 38.0423 71.3602 38.0423 71.2005C38.0423 70.9533 38.0082 70.748 37.9442 70.5882C37.5011 70.5882 37.2412 70.6187 37.1602 70.6757C37.0111 70.7632 36.9471 71.2766 36.9471 72.1968C36.9812 72.2424 36.9983 72.3299 36.9983 72.444C36.9983 72.5162 36.9983 72.6189 36.9812 72.752C36.9642 72.8965 36.9642 73.0144 36.9642 73.0866C36.9642 73.1893 36.9642 73.2767 36.9812 73.3186C36.4912 73.6267 36.014 73.946 35.541 74.2693C33.7727 75.4976 33.0697 76.1973 33.0697 77.8211C33.0697 78.4789 33.3977 79.1368 34.0668 79.7794C34.4417 79.9239 34.8209 80 35.1789 80C35.703 80 36.1929 79.8555 36.6702 79.5779C36.7043 79.5627 36.7512 79.5208 36.8194 79.4751C36.9514 79.3877 37.0665 79.2698 37.0494 79.2698C37.5736 79.0949 37.9187 75.5013 37.9187 74.2883V74.1285C37.9016 74.0563 37.9016 74.0107 37.9016 73.984C37.9016 73.9384 38.0635 73.8092 38.4087 73.5886C38.7794 73.33 38.9924 73.1969 39.0393 73.1551ZM36.913 74.4252C36.8321 77.0567 36.7 79.1139 35.3109 79.1139H35.23C34.6888 79.0987 34.1647 78.1366 34.1647 77.6232C34.1605 76.5585 35.6859 75.026 36.913 74.4252Z" fill="#1D1D1B"/>
<path d="M46.7177 77.4057C46.7177 76.7782 46.6666 76.0024 46.5685 75.0669L46.3214 72.7435C46.1893 71.2376 45.9933 70.3022 45.0133 69.7356C44.8343 69.6329 44.5403 69.5759 44.1313 69.5759H43.9352C42.4141 69.5759 42.0518 69.5455 41.6087 70.0285C41.4297 70.3631 41.2977 70.6406 41.2167 70.8916C40.9056 71.6522 40.7437 72.2797 40.7096 72.7625C40.6585 74.2951 40.6585 74.721 40.6585 75.8732C40.6585 76.1203 40.6585 76.5006 40.6755 77.014V78.1548C40.6755 78.4324 41.1016 78.5921 41.4297 78.5921C41.7579 78.5921 41.9198 78.4742 41.9198 78.2423V78.0522C41.9027 77.9799 41.9027 77.919 41.9027 77.8772C41.9027 77.7442 41.9198 77.5426 41.9368 77.2649C41.9539 76.9874 41.9539 76.7821 41.9539 76.6528V76.493C41.9368 76.4207 41.9368 76.3751 41.9368 76.3485C41.9368 76.2611 41.9539 76.128 41.9709 75.953C41.988 75.7781 42.005 75.645 42.005 75.5728C42.0221 74.4167 42.3672 74.3749 43.9863 74.3749C44.5105 74.3749 44.8216 74.3901 44.9195 74.4206C45.5757 74.6107 45.5246 75.0784 45.5246 76.4664V77.109C45.5417 77.9875 45.5757 78.4248 46.2446 78.4248C46.7007 78.4134 46.7177 78.0483 46.7177 77.4057ZM45.2604 72.831C45.2604 73.1961 45.1112 73.371 44.8002 73.371C44.7192 73.371 44.6043 73.3558 44.4551 73.3406C44.2932 73.3253 44.1781 73.3102 44.0929 73.3102C43.9778 73.3102 43.8159 73.3253 43.6029 73.3558C43.3898 73.4014 43.2279 73.4129 43.1129 73.4129H42.6868C42.1158 73.4129 41.8345 73.3253 41.8345 73.1352C41.8345 72.9604 42.2095 70.519 43.637 70.519C44.0801 70.519 44.6212 70.5494 44.7661 70.9715C45.0984 71.8956 45.2604 72.5268 45.2604 72.831Z" fill="#1D1D1B"/>
<path d="M58.3247 77.4936V77.3909C58.3076 77.3452 58.3076 77.3186 58.3076 77.3034C57.4725 77.2883 55.7212 77.3186 55.18 76.8661C54.4429 76.2691 54.0849 75.4781 54.0849 74.4704C54.0849 73.36 54.673 72.0291 55.6572 71.5043C55.8064 71.4321 56.1174 71.3598 56.5904 71.3142C57.6557 71.2115 58.2266 71.0936 58.2266 70.5537V70.3787C57.8517 70.1163 57.3915 69.9833 56.8205 69.9833C55.6572 69.9833 54.4301 70.5688 53.7271 71.4016C52.8918 72.4093 52.4828 73.4779 52.4828 74.5731C52.4828 76.136 53.416 77.4061 55.2652 78.372C55.4143 78.4442 55.7553 78.4898 56.2623 78.4898C57.4384 78.4861 58.3247 78.3682 58.3247 77.4936Z" fill="#1D1D1B"/>
<path d="M67.0001 74.3678L66.966 74.075C66.9489 73.8278 66.9489 73.6376 66.9489 73.5046C66.7529 71.7059 65.5087 69.603 63.1992 69.603C62.4153 69.603 61.7419 69.8235 61.2009 70.276C60.1057 71.1811 59.2706 73.3448 59.2706 74.7328V75.1283C59.2706 77.0411 60.4338 78.2845 61.9891 78.6192C62.0061 78.6192 62.053 78.6345 62.1511 78.6496L62.313 78.68C64.7204 78.68 65.8667 78.0222 66.3396 76.9117C66.591 76.368 67.0001 74.8469 67.0001 74.3678ZM65.7089 74.132C65.7089 75.6949 65.006 77.4061 63.4847 77.4061C61.2094 77.4061 60.2933 76.5885 60.2933 74.5579C60.3102 74.5123 60.3102 74.4704 60.3273 74.4134C60.3273 74.3564 60.3273 74.3107 60.3443 74.269C60.6895 72.6185 61.4096 70.8502 62.9947 70.8502C63.5997 70.8502 64.4861 71.2458 64.942 71.6527C64.9932 71.6983 65.057 71.7857 65.1551 71.9454C65.5257 72.5272 65.7089 73.2574 65.7089 74.132Z" fill="#1D1D1B"/>
<path d="M73.285 77.0413C73.2679 77.0108 73.2338 76.9842 73.221 76.969C73.025 76.7218 72.9101 76.7218 72.3859 76.7218C72.207 76.7218 71.913 76.7218 71.5338 76.737C71.1587 76.7523 70.8604 76.7675 70.6644 76.7675C70.4045 76.7675 70.2043 76.7675 70.0765 76.7523C69.9273 76.3568 69.8464 75.8891 69.8464 75.3643C69.8464 75.1171 69.8634 74.752 69.8974 74.2691C69.9315 73.7862 69.9486 73.4211 69.9486 73.1739C69.9486 72.9267 69.9315 72.3868 69.8974 71.5654L69.8464 70.3372C69.8293 70.09 69.8293 69.915 69.8293 69.7819C69.8123 69.7097 69.6504 69.6641 69.3692 69.6641C69.024 69.6641 68.7981 69.7819 68.6661 69.9987C68.6149 70.0556 68.6021 70.1888 68.6021 70.3941C68.6021 70.512 68.6021 70.687 68.6192 70.9037C68.6362 71.1357 68.6362 71.3144 68.6362 71.4285C68.6362 72.4058 68.6362 72.9914 68.6533 73.1663C68.7044 74.0296 68.7342 74.7293 68.7342 75.2844C68.7342 75.4442 68.7342 75.6799 68.7171 75.9841C68.7002 76.3074 68.7002 76.5393 68.7002 76.6991C68.7002 76.8587 68.7512 77.2238 68.8493 77.8247C68.8663 77.9273 68.9132 77.9995 68.9643 78.0452C69.0964 78.1783 69.3393 78.2353 69.6844 78.2353C69.7014 78.2353 71.8106 77.9882 72.5308 77.8855C72.7268 77.8855 72.876 77.8855 72.991 77.8702C73.204 77.8589 73.2381 77.3759 73.285 77.0413Z" fill="#1D1D1B"/>
<path d="M80.4733 77.4057C80.4733 76.7782 80.4223 76.0024 80.3242 75.0669L80.0771 72.7435C79.945 71.2376 79.7489 70.3022 78.769 69.7356C78.5899 69.6329 78.296 69.5759 77.8869 69.5759H77.6909C76.1698 69.5759 75.8075 69.5455 75.3644 70.0285C75.1854 70.3631 75.0534 70.6406 74.9724 70.8916C74.6613 71.6522 74.4994 72.2797 74.4653 72.7625C74.4142 74.2951 74.4142 74.721 74.4142 75.8732C74.4142 76.1203 74.4142 76.5006 74.4312 77.014V78.1548C74.4312 78.4324 74.8573 78.5921 75.1855 78.5921C75.5136 78.5921 75.6755 78.4742 75.6755 78.2423V78.0522C75.6584 77.9799 75.6584 77.919 75.6584 77.8772C75.6584 77.7442 75.6755 77.5426 75.6925 77.2649C75.7096 76.9874 75.7096 76.7821 75.7096 76.6528V76.493C75.6925 76.4207 75.6925 76.3751 75.6925 76.3485C75.6925 76.2611 75.7096 76.128 75.7266 75.953C75.7437 75.7781 75.7606 75.645 75.7606 75.5728C75.7777 74.4167 76.1229 74.3749 77.742 74.3749C78.2662 74.3749 78.5773 74.3901 78.6752 74.4206C79.3314 74.6107 79.2802 75.0784 79.2802 76.4664V77.109C79.2973 77.9875 79.3314 78.4248 80.0003 78.4248C80.4564 78.4134 80.4733 78.0483 80.4733 77.4057ZM79.0161 72.831C79.0161 73.1961 78.8669 73.371 78.5559 73.371C78.4749 73.371 78.3598 73.3558 78.2108 73.3406C78.0489 73.3253 77.9338 73.3102 77.8486 73.3102C77.7335 73.3102 77.5716 73.3253 77.3586 73.3558C77.1455 73.4014 76.9836 73.4129 76.8686 73.4129H76.4425C75.8715 73.4129 75.5902 73.3253 75.5902 73.1352C75.5902 72.9604 75.9652 70.519 77.3927 70.519C77.8358 70.519 78.3769 70.5494 78.5218 70.9715C78.8541 71.8956 79.0161 72.5268 79.0161 72.831Z" fill="#1D1D1B"/>
<path d="M87.6105 76.1358C87.6105 75.3905 87.2015 74.6908 86.3834 74.0025C86.0084 73.6792 85.6632 73.4778 85.3692 73.375C86.2513 72.8655 86.6944 72.1316 86.6944 71.1999C86.6944 70.8044 86.6134 70.3823 86.4473 69.9298C85.8082 69.2415 84.598 68.8498 83.5327 68.8498C82.4036 68.8498 82.0585 69.1731 82.0585 70.1656C82.0585 70.3253 82.0754 70.5762 82.0925 70.8957C82.1095 71.2303 82.1266 71.466 82.1266 71.6258C82.1266 71.6981 82.1095 71.7855 82.0925 71.9186C82.0585 72.0517 82.0414 72.1391 82.0414 72.181C81.9903 72.6905 81.9775 73.0861 81.9775 73.3636V74.0062C81.9775 74.4892 82.0116 75.2042 82.0925 76.1548C82.2246 78.0524 81.5855 78.695 84.402 78.695C84.875 78.695 85.1732 78.6646 85.284 78.6228C86.8393 77.9611 87.6105 77.1435 87.6105 76.1358ZM85.6121 71.2417C85.6121 71.5763 85.4971 71.854 85.2499 72.1049C84.973 72.3978 83.7585 72.8503 83.2345 72.9072C83.2004 72.5726 83.1834 72.219 83.1834 71.8844C83.1834 71.314 83.2175 70.7284 83.2813 70.1466C83.4945 70.0743 83.6904 70.0287 83.9035 70.0287C84.7599 70.0287 85.6121 70.523 85.6121 71.2417ZM86.1362 76.1205C86.1362 76.3982 86.0383 76.6606 85.8592 76.9229C85.4843 77.463 85.1051 77.6835 84.4659 77.6835C84.3509 77.6835 84.1549 77.6835 83.9078 77.6683H83.3367C83.3538 77.596 83.3538 77.4782 83.3538 77.3337C83.3538 77.0257 83.3197 76.5579 83.2729 75.9304C83.2217 75.3182 83.1919 74.8657 83.1919 74.5577C83.1919 74.5121 83.1919 74.5006 83.2089 74.4855C83.226 74.3828 83.503 74.341 84.0441 74.341C84.321 74.341 84.517 74.3561 84.6321 74.3979C85.4331 74.6717 86.1362 75.3753 86.1362 76.1205Z" fill="#1D1D1B"/>
<path d="M96.5969 74.3678L96.5629 74.075C96.5459 73.8278 96.5459 73.6376 96.5459 73.5046C96.3499 71.7059 95.1056 69.603 92.7962 69.603C92.0121 69.603 91.3389 69.8235 90.7977 70.276C89.7027 71.1811 88.8674 73.3448 88.8674 74.7328V75.1283C88.8674 77.0411 90.0308 78.2845 91.586 78.6192C91.6031 78.6192 91.65 78.6345 91.7479 78.6496L91.9099 78.68C94.3173 78.68 95.4635 78.0222 95.9365 76.9117C96.1879 76.368 96.5969 74.8469 96.5969 74.3678ZM95.3016 74.132C95.3016 75.6949 94.5986 77.4061 93.0774 77.4061C90.802 77.4061 89.8859 76.5885 89.8859 74.5579C89.9029 74.5123 89.9029 74.4704 89.92 74.4134C89.92 74.3564 89.92 74.3107 89.937 74.269C90.2821 72.6185 91.0022 70.8502 92.5874 70.8502C93.1924 70.8502 94.0787 71.2458 94.5346 71.6527C94.5858 71.6983 94.6497 71.7857 94.7476 71.9454C95.1227 72.5272 95.3016 73.2574 95.3016 74.132Z" fill="#1D1D1B"/>
<path d="M104.535 71.9264C104.535 71.7667 104.471 71.5614 104.339 71.3142C103.555 69.8387 100.773 69.8691 99.2175 69.8691C98.7445 70.1923 98.4634 70.7742 98.3824 71.6222C98.3184 72.5995 98.2843 73.3448 98.2673 73.8429C98.2034 74.4552 98.1523 74.9229 98.1054 75.2309C98.0244 75.9192 97.9904 76.4744 97.9904 76.9117C97.9904 77.6875 98.1225 78.0792 98.3653 78.0792C99.0045 78.0792 99.3326 77.6837 99.3326 76.8814C99.3326 76.7482 99.3155 76.5467 99.2985 76.2805C99.2814 76.0333 99.2644 75.8432 99.2644 75.7101C99.2644 75.3146 99.3454 75.0522 99.5243 74.9495L99.5073 74.9648L99.5243 74.9952C100.918 76.8509 102.06 77.7864 102.946 77.7864C103.159 77.7864 103.355 77.7293 103.534 77.5963C103.534 77.216 103.338 76.8509 102.929 76.5163C102.554 76.2539 102.192 75.9916 101.817 75.7405C101.408 75.4325 101.212 75.1396 101.212 74.8355H101.276C102.26 74.5883 102.878 74.383 103.159 74.2232C103.355 74.1206 103.602 73.9152 103.879 73.6225C104.454 73.052 104.535 73.052 104.535 71.9264ZM103.21 72.3523C102.294 73.6947 100.59 73.9305 99.4774 73.9305C99.4604 73.9305 99.4433 73.9305 99.4264 73.9152H99.3624L99.4136 72.1621C99.4305 71.5614 99.7885 71.0062 100.398 71.0062C101.118 71.0062 102.724 71.3294 103.035 71.664C103.146 71.9417 103.193 72.1736 103.21 72.3523Z" fill="#1D1D1B"/>
<path d="M112.162 77.4057C112.162 76.7782 112.111 76.0024 112.013 75.0669L111.766 72.7435C111.634 71.2376 111.438 70.3022 110.458 69.7356C110.279 69.6329 109.985 69.5759 109.576 69.5759H109.38C107.859 69.5759 107.497 69.5455 107.053 70.0285C106.874 70.3631 106.742 70.6406 106.661 70.8916C106.35 71.6522 106.188 72.2797 106.154 72.7625C106.103 74.2951 106.103 74.721 106.103 75.8732C106.103 76.1203 106.103 76.5006 106.12 77.014V78.1548C106.12 78.4324 106.546 78.5921 106.874 78.5921C107.203 78.5921 107.365 78.4742 107.365 78.2423V78.0522C107.347 77.9799 107.347 77.919 107.347 77.8772C107.347 77.7442 107.365 77.5426 107.382 77.2649C107.399 76.9874 107.399 76.7821 107.399 76.6528V76.493C107.382 76.4207 107.382 76.3751 107.382 76.3485C107.382 76.2611 107.399 76.128 107.416 75.953C107.433 75.7781 107.45 75.645 107.45 75.5728C107.467 74.4167 107.808 74.3749 109.431 74.3749C109.955 74.3749 110.266 74.3901 110.364 74.4206C111.02 74.6107 110.969 75.0784 110.969 76.4664V77.109C110.986 77.9875 111.021 78.4248 111.689 78.4248C112.15 78.4134 112.162 78.0483 112.162 77.4057ZM110.709 72.831C110.709 73.1961 110.56 73.371 110.249 73.371C110.168 73.371 110.053 73.3558 109.904 73.3406C109.742 73.3253 109.627 73.3102 109.542 73.3102C109.427 73.3102 109.265 73.3253 109.052 73.3558C108.839 73.4014 108.677 73.4129 108.562 73.4129H108.136C107.565 73.4129 107.284 73.3253 107.284 73.1352C107.284 72.9604 107.659 70.519 109.086 70.519C109.529 70.519 110.07 70.5494 110.215 70.9715C110.543 71.8956 110.709 72.5268 110.709 72.831Z" fill="#1D1D1B"/>
<path d="M120.594 70.0552C120.594 69.7624 120.56 69.6027 120.497 69.5571C120.382 69.4848 119.939 69.4543 119.189 69.4543C118.797 69.4543 118.205 69.4695 117.42 69.5114C116.637 69.5571 116.044 69.5837 115.636 69.5837C115.29 69.5837 114.979 69.5684 114.684 69.538C114.634 69.538 114.57 69.5227 114.472 69.4924C114.357 69.4619 114.293 69.4468 114.242 69.4468C113.833 69.4468 113.62 69.5913 113.62 69.8841C113.62 69.9867 113.637 70.1465 113.654 70.3669C113.671 70.5875 113.671 70.7625 113.671 70.8651V70.9107C113.688 70.9564 113.803 70.9831 113.999 70.9831C114.246 70.9831 114.604 70.9526 115.081 70.8804C115.554 70.8081 115.917 70.7777 116.163 70.7777C116.313 70.7777 116.393 70.8081 116.393 70.8499C116.393 70.907 116.376 70.9944 116.359 71.0971C116.342 71.1998 116.325 71.2721 116.325 71.3177C116.163 72.9681 116.078 75.1888 116.078 77.9496C116.078 78.1245 116.24 78.212 116.569 78.212C116.913 78.212 117.224 78.1549 117.502 78.0218C117.565 77.8469 117.599 77.2765 117.599 76.3144C117.599 76.052 117.599 75.6566 117.582 75.1318C117.565 74.607 117.548 74.2115 117.548 73.9339C117.548 72.9262 117.647 71.8881 117.826 70.8233H119.398C119.496 70.8233 119.644 70.8385 119.84 70.8689C120.02 70.8994 120.169 70.9146 120.25 70.9146C120.48 70.9184 120.594 70.6256 120.594 70.0552Z" fill="#1D1D1B"/>
<path d="M123.245 70.4967C123.147 69.7667 122.9 69.4016 122.491 69.4016C122.18 69.4016 121.853 69.7362 121.853 70.0137V70.2192C121.853 70.4967 122.082 70.7173 122.538 70.877C122.922 70.8618 122.985 70.7857 123.245 70.4967ZM123.867 76.4708C123.867 75.9612 123.804 75.1855 123.688 74.1473C123.608 73.402 123.557 72.9039 123.557 72.6567C123.557 72.322 123.505 72.014 123.395 71.7516C123.117 71.6186 122.888 71.5615 122.721 71.5615C122.278 71.5615 122.052 71.9113 122.052 72.6149C122.052 72.9647 122.104 73.3602 122.201 73.8127C122.283 74.1625 122.317 74.3223 122.317 74.2957C122.317 74.5162 122.3 74.8661 122.283 75.3186C122.248 75.7711 122.231 76.121 122.231 76.3567C122.231 77.6002 122.479 78.3417 122.968 78.6079H123.049C123.1 78.5927 123.113 78.5927 123.13 78.5927C123.147 78.5927 123.194 78.5927 123.245 78.6079H123.343C123.688 78.5014 123.867 77.7865 123.867 76.4708Z" fill="#1D1D1B"/>
<path d="M132.841 71.7977C132.777 70.9345 132.611 70.4972 132.368 70.4972C132.317 70.4972 132.218 70.5542 132.074 70.6568C131.878 70.8166 131.712 71.0067 131.601 71.2272C130.945 72.6571 130.472 73.7408 130.178 74.471C129.85 75.1136 129.607 75.5966 129.424 75.9007C129.245 76.2355 128.981 76.6614 128.802 76.7792C128.133 76.3571 127.067 73.9462 126.658 72.6457C126.463 72.0487 126.364 71.7102 126.347 71.6531C126.216 71.1854 126.25 70.9801 125.674 70.9801C125.414 70.9801 125.15 71.2729 125.15 71.5049C125.15 71.5771 125.213 71.8851 125.363 72.4099C125.525 73.0107 125.772 73.6382 126.083 74.2657C126.59 75.3303 126.884 75.9312 126.953 76.0642C127.511 77.3345 128.145 78.3156 128.865 78.9848C129.274 78.9696 129.505 78.7071 129.552 78.1672C130.221 77.1595 130.617 76.5169 130.732 76.2697C130.894 75.935 131.089 75.5814 131.319 75.1897C131.58 74.7372 131.746 74.4292 131.81 74.2694C132.283 73.0222 132.628 72.2046 132.841 71.7977Z" fill="#1D1D1B"/>
<path d="M140.124 77.4057C140.124 76.7782 140.072 76.0024 139.974 75.0669L139.727 72.7435C139.595 71.2376 139.399 70.3022 138.418 69.7356C138.239 69.6329 137.946 69.5759 137.537 69.5759H137.34C135.819 69.5759 135.457 69.5455 135.014 70.0285C134.835 70.3631 134.703 70.6406 134.623 70.8916C134.311 71.6522 134.149 72.2797 134.115 72.7625C134.064 74.2951 134.064 74.721 134.064 75.8732C134.064 76.1203 134.064 76.5006 134.081 77.014V78.1548C134.081 78.4324 134.507 78.5921 134.835 78.5921C135.164 78.5921 135.326 78.4742 135.326 78.2423V78.0522C135.309 77.9799 135.309 77.919 135.309 77.8772C135.309 77.7442 135.326 77.5426 135.343 77.2649C135.36 76.9874 135.36 76.7821 135.36 76.6528V76.493C135.343 76.4207 135.343 76.3751 135.343 76.3485C135.343 76.2611 135.36 76.128 135.377 75.953C135.394 75.7781 135.411 75.645 135.411 75.5728C135.428 74.4167 135.769 74.3749 137.392 74.3749C137.916 74.3749 138.227 74.3901 138.325 74.4206C138.981 74.6107 138.93 75.0784 138.93 76.4664V77.109C138.947 77.9875 138.981 78.4248 139.65 78.4248C140.106 78.4134 140.124 78.0483 140.124 77.4057ZM138.666 72.831C138.666 73.1961 138.517 73.371 138.205 73.371C138.125 73.371 138.01 73.3558 137.86 73.3406C137.698 73.3253 137.584 73.3102 137.499 73.3102C137.383 73.3102 137.221 73.3253 137.009 73.3558C136.796 73.4014 136.634 73.4129 136.518 73.4129H136.092C135.522 73.4129 135.24 73.3253 135.24 73.1352C135.24 72.9604 135.615 70.519 137.042 70.519C137.485 70.519 138.027 70.5494 138.171 70.9715C138.504 71.8956 138.666 72.5268 138.666 72.831Z" fill="#1D1D1B"/>
<path fill-rule="evenodd" clip-rule="evenodd" d="M131.95 42.0907C134.946 45.1025 130.366 44.6233 140.038 50.4301C145.986 54.0008 146.102 52.0729 149.058 53.3886C150.422 53.997 151.359 53.8563 153.124 53.7271C162.293 53.0577 167.095 53.0463 173.104 47.1217C179.132 41.1781 185.554 41.623 177.164 34.2724C173.469 31.0362 175.533 31.3443 173.597 29.4278C170.653 26.5148 171.872 26.6138 169.874 24.7504C167.607 22.6323 166.49 24.3436 164.313 22.3015C160.883 19.0805 160.712 22.0391 157.913 21.0276C155.497 20.1529 153.098 20.2974 150.618 21.4573C147.47 22.929 148.998 23.3891 144.414 23.929C142.723 16.9206 146.161 18.7536 144.031 16.6697C142.416 15.0877 141.077 13.0647 139.351 11.787C136.6 9.75636 134.963 11.1519 131.686 10.3496C128.014 9.44833 127.246 9.17453 123.023 9.85902C120.041 10.342 117.314 11.0265 114.251 11.3117C110.654 11.6463 106.734 14.1979 104.382 16.0841L97.3682 23.3434C95.0758 26.032 94.8244 32.9985 93.9765 37.1587C93.3075 40.4479 90.4953 41.5583 95.9109 42.0033C97.2148 42.1097 98.3099 42.7181 99.0726 43.3761C100.509 44.6233 100.001 44.418 101.979 45.3573C109.849 49.1029 117.425 49.179 126.079 45.8935C129.254 44.6918 130.446 44.4941 131.95 42.0907Z" fill="#262626"/>
<path fill-rule="evenodd" clip-rule="evenodd" d="M96.286 31.4234C97.0955 32.6365 97.2831 33.4503 99.0087 32.6707C100.419 32.0318 100.845 31.1078 102.098 31.3055C102.422 32.9217 101.817 32.8533 101.697 34.1044C103.236 34.5607 106.755 34.3516 108.732 34.7546C108.745 36.4088 107.19 36.2719 105.251 36.7663C105.051 37.5116 104.97 37.4203 104.855 37.6181L95.7192 40.0213C97.2788 40.5993 108.937 38.5573 110.241 38.1618C112.763 37.3975 113.871 36.6673 115.934 35.6939C120.987 33.3058 120.867 34.941 126.722 30.2826C131.592 26.4077 140.349 22.7571 140.311 20.2472C136.782 21.0079 126.419 28.5334 124.792 28.7805C125.525 28.4497 126.241 27.5523 126.859 27.0921C127.584 26.5483 128.563 25.9931 129.377 25.4837C132.109 23.7685 137.234 20.9584 139.382 18.9924C141.329 17.2128 141.585 16.5548 139.53 14.6801C138.504 15.7411 139.467 16.1555 136.228 18.6159C134.98 19.5628 132.888 21.0496 131.145 21.4984L132.279 20.3804C132.73 20.0838 133.11 19.8784 133.531 19.5818C135.756 18.0265 139.206 15.8666 138.44 12.6647C134.58 10.8888 133.003 12.0297 129.24 12.737L129.586 12.0867C129.615 12.0334 129.663 11.9536 129.697 11.9003C129.927 11.4896 129.914 11.7597 130.045 11.2539C126.863 10.7519 125.384 11.349 122.21 11.771C119.313 12.1551 117.386 13.9348 116.151 13.9462L117.736 12.2654C113.688 12.6875 112.418 12.581 109.406 14.646C109.653 15.3684 109.333 14.6839 109.955 15.1478C110.535 15.5737 110.173 14.9882 110.573 15.5624C107.134 17.0683 106.214 16.0035 102.741 19.3764C100.888 21.1751 98.4634 22.8217 97.249 25.533C96.5969 27.0047 95.6808 29.659 96.286 31.4234Z" fill="#D99C63"/>
<path fill-rule="evenodd" clip-rule="evenodd" d="M150.051 23.8454C150.793 24.8607 151.666 24.5908 152.148 26.686C149.817 26.7278 149.863 24.7086 145.164 25.6251C142.292 26.184 141.35 27.1005 141.077 29.5533C142.117 29.4696 143.464 28.2261 144.461 30.5876C143.153 30.5686 142.706 30.7359 141.585 30.8043C140.221 30.888 140.451 30.5914 139.117 30.7016C137.933 32.1923 137.656 33.9605 139.105 35.4512C140.272 36.6567 139.387 35.7783 140.533 35.9874C142.1 38.4858 140.75 38.5542 144.388 39.349C146.873 39.889 148.159 39.7103 149.902 41.0299L149.246 41.3379C148.64 41.604 149.029 41.2998 148.445 41.6762L156.631 43.4065C158.369 43.5738 157.082 43.3951 157.64 43.2126C157.96 43.1098 157.209 42.8931 158.628 43.03C158.773 43.0453 159.498 43.243 159.805 43.3077C160.53 43.4559 161.642 43.6309 162.323 43.6081C163.58 43.5701 163.678 43.2316 164.752 42.973C165.702 42.7449 165.693 42.7676 166.486 43.1289L167.24 43.4902C169.503 43.8666 174.629 41.0184 175.49 39.8509C176.976 37.8279 175.115 37.0027 173.819 34.2344C173.333 33.1924 173.483 32.5688 173.138 31.6676C171.475 31.4242 171.608 31.8196 170.014 32.0973C170.334 31.101 170.462 31.5002 170.457 30.6637L169.29 29.4202L170.342 29.2225C170.38 29.2186 170.483 29.2262 170.542 29.2035C169.307 24.3778 168.071 25.8533 163.644 25.0318C162.872 24.0736 163.171 22.2901 160.593 22.7313C159.102 22.986 156.703 24.0165 155.382 23.4955C156.029 22.8148 156.256 23.2446 156.622 22.3699C152.774 21.8034 152.488 22.9024 150.051 23.8454Z" fill="#F5E3A4"/>
<path fill-rule="evenodd" clip-rule="evenodd" d="M100.21 41.6081C102.221 45.0305 105.443 46.4527 109.653 47.1105C114.805 47.9168 115.755 46.2816 119.772 45.7073C120.842 45.5553 122.15 45.289 123.019 44.8631C121.733 43.825 118.358 44.2129 117.233 42.494C119.508 42.6918 122.231 44.2623 124.664 43.8212C127.391 43.3268 129.888 42.167 131.827 41.243C131.21 34.0445 128.682 30.736 139.368 25.785L142.471 24.6974L142.147 23.0965C141.768 22.1572 142.019 22.739 141.756 22.3967C141.077 22.7809 141.623 22.4386 141.15 22.8151L139.757 24.0548C139.028 24.6404 138.265 25.0624 137.388 25.515C134.337 27.0931 131.14 29.2721 128.333 31.2609C124.404 34.0445 125.069 34.5274 118.708 36.5504C116.654 37.2045 114.396 37.425 112.478 38.1019C108.391 39.547 101.612 40.6231 100.21 41.6081Z" fill="#BB7533"/>
<path fill-rule="evenodd" clip-rule="evenodd" d="M137.009 44.8133L134.903 44.1858C135.812 46.7983 138.215 47.4409 140.204 49.0609C141.942 50.4755 144.337 51.9319 147.925 51.8938C147.132 49.9203 145.551 49.8974 144.759 48.7718C149.689 49.4297 146.161 53.2476 157.269 52.1981L156.217 51.0154C159.017 51.122 161.914 52.3958 164.603 50.9812C164.888 50.8292 165.169 50.6505 165.369 50.3272C165.715 49.7682 165.454 50.137 165.599 49.7416L165.804 49.1064C167.999 48.9278 169.623 48.5665 170.5 46.9998C168.182 47.6957 161.582 48.3688 158.765 48.1863C155.681 47.9885 147.269 45.8096 144.376 44.6916C142.441 43.9424 142.331 43.2047 140.158 42.8929C136.169 42.3186 135.658 40.4401 133.369 37.6604C132.786 38.6225 133.562 40.9193 134.217 42.0182C135.372 43.9424 136.859 43.1325 137.009 44.8133Z" fill="#BB7533"/>
<path fill-rule="evenodd" clip-rule="evenodd" d="M179.708 40.5847C179.725 38.3525 177.496 35.5879 175.779 34.6905C176.15 36.3257 180.982 40.9687 169.52 43.8816C161.642 45.8857 159.123 44.5243 153.409 43.4937C148.249 42.5621 143.191 41.6 140.025 38.8925C138.879 37.9114 136.259 35.6411 136.08 33.5839C135.883 31.3289 137.371 30.2603 138.282 29.2374C138.338 29.1728 138.747 28.6974 138.802 28.6138C139.293 27.9103 138.943 28.61 139.296 27.7392C134.894 28.5871 131.606 32.5572 133.332 35.4929C134.055 36.7249 138.819 41.1513 141.193 42.1172C144.026 43.2694 142.663 43.7105 148.113 44.9122C155.135 46.4598 157.337 47.015 164.927 46.2355C171.39 45.5738 174.003 44.1592 179.708 40.5847Z" fill="#D99C63"/>
<path fill-rule="evenodd" clip-rule="evenodd" d="M104.855 37.6225C104.97 37.4248 105.051 37.516 105.251 36.7707C107.186 36.2764 108.745 36.4133 108.732 34.7591C106.755 34.356 103.236 34.5651 101.697 34.1088C101.817 32.8577 102.422 32.9262 102.098 31.3101C100.845 31.1123 100.423 32.0364 99.0087 32.6752C97.283 33.4547 97.0912 32.6372 96.2859 31.4279C96.0985 31.774 96.2689 31.1503 96.0218 32.139C95.6936 33.4585 95.813 37.1016 95.9919 38.3222C102.256 38.3564 103.449 36.4322 104.855 37.6225Z" fill="#BB7533"/>
<path fill-rule="evenodd" clip-rule="evenodd" d="M144.453 33.9912L145.637 34.8126C146.268 35.2271 146.161 35.0673 146.557 35.5921C147.184 36.4287 147.043 37.1094 147.75 37.8928C149.169 39.4672 151.424 38.5696 153.805 38.8815L154.01 40.1059C154.014 40.1326 154.014 40.2086 154.035 40.2543C159.851 37.0942 161.292 39.1743 163.452 38.0183C162.558 36.2196 151.875 37.8928 149.766 36.9459C148.514 36.3831 148.062 35.1967 147.661 33.5387C145.556 34.0711 147.886 34.535 144.453 33.9912Z" fill="#262626"/>
<path fill-rule="evenodd" clip-rule="evenodd" d="M151.785 32.8542L151.734 34.0369C153.042 33.6489 153.281 33.1014 154.661 32.5804C155.288 32.3446 157.606 31.6183 158.432 31.5233C162.566 31.0479 162.323 34.1623 164.211 34.7517C165.446 34.0977 164.121 34.9761 165.024 33.6223C166.362 33.5197 166.916 33.5234 167.612 32.6792C165.992 31.7476 165.038 33.3296 162.903 31.7857C159.246 29.1352 156.208 30.4775 152.872 30.9605C150.132 31.3559 149.808 30.6752 147.559 30.2874C148.99 31.8084 149.143 32.3561 151.785 32.8542Z" fill="#262626"/>
<path fill-rule="evenodd" clip-rule="evenodd" d="M154.598 25.0314C154.96 25.674 155.215 25.3926 155.667 26.2786C154.623 26.6322 153.975 27.2331 153.669 28.0925C155.459 27.9556 156.174 26.5676 158.773 26.6398C161.023 26.7008 161.871 27.6209 164.219 27.8644C163.585 26.7198 161.833 25.366 160.295 25.0427C157.103 24.3696 157.687 24.4913 154.598 25.0314Z" fill="#262626"/>
<path fill-rule="evenodd" clip-rule="evenodd" d="M166.95 37.664C166.976 37.7287 167.032 37.7553 167.057 37.8504C167.078 37.9417 167.146 37.9912 167.168 38.0291C167.197 38.0786 167.351 38.2954 167.38 38.36C167.986 39.6985 166.558 39.9152 167.832 41.0942C168.688 40.0978 168.007 39.1737 169.732 38.0025C171.915 36.5233 171.671 36.4396 173.333 35.9567C172.707 35.006 173.572 35.8882 172.724 35.3939C172.221 35.1048 172.528 35.3977 172.06 35.1239C171.245 34.6486 171.995 34.8805 171.165 34.1466C170.095 35.2646 172.009 36.2191 166.95 37.664Z" fill="#262626"/>
</svg>
