<svg width="160" height="71" viewBox="0 0 160 71" fill="none" xmlns="http://www.w3.org/2000/svg">
<path fill-rule="evenodd" clip-rule="evenodd" d="M108.253 51.7036C100.2 51.7036 46.1774 51.7036 38.1287 51.7036C36.8757 51.7036 35.8033 51.7036 34.7309 51.7036C32.9435 51.7036 31.333 51.7036 29.8994 52.0999C28.827 52.3383 27.574 52.8152 27.2165 53.3692C26.6822 54.558 29.5419 55.5084 32.2248 55.5084C40.2773 55.5084 94.1195 55.5084 102.349 55.5084C103.421 55.5084 104.674 55.5084 105.747 55.5084C107.357 55.5084 108.979 55.4412 110.578 55.1121C111.666 54.8871 112.858 54.3968 113.084 53.8427C113.573 52.6506 110.936 51.7036 108.253 51.7036Z" fill="#1D1D1B"/>
<path fill-rule="evenodd" clip-rule="evenodd" d="M54.4067 40.3661C54.1396 41.2392 58.4028 43.6939 59.2043 43.6939C62.937 43.6939 85.5516 43.6939 89.2806 43.6939C89.9014 43.6939 87.9523 42.26 87.8582 42.1862C87.1546 41.6287 85.6382 40.3627 84.5733 40.3627C82.8838 40.3627 62.1356 40.3627 60.3595 40.3627C63.2907 30.2951 66.1317 20.3081 69.0629 10.3177C69.5069 8.7327 69.9509 7.14769 70.4853 5.56266C70.6621 4.77015 66.4891 2.23142 65.6011 2.23142C61.9587 2.23142 58.2297 2.23142 54.5873 2.23142C53.9665 2.23142 55.8291 3.65861 56.0097 3.7392C56.7209 4.29329 58.1432 5.56266 59.2081 5.56266C60.9841 5.56266 62.7602 5.56266 64.4497 5.56266C61.6088 15.6303 58.6775 25.6173 55.7463 35.6849C55.2947 37.196 54.8507 38.781 54.4067 40.3661Z" fill="#1D1D1B"/>
<path fill-rule="evenodd" clip-rule="evenodd" d="M31.8674 43.2209C34.7083 45.2828 39.5059 43.8556 42.0835 42.0321C43.773 40.8434 44.7475 39.2583 45.3684 37.5121C46.4333 34.6577 46.8773 31.6455 47.2348 28.7139C47.8556 23.9588 48.2131 19.2004 48.2996 14.4453C48.2996 12.3834 48.2996 10.3216 47.9459 8.26303C47.7691 6.83584 47.5019 5.40864 46.6139 4.13928C43.8595 0.492376 37.0225 2.63485 34.4449 5.32805C32.2248 7.86342 30.8928 10.9562 30.3585 14.0491C29.7376 17.6154 29.2936 21.2623 29.0264 24.9092C28.6727 28.2404 28.8496 31.5683 29.0264 34.8962C29.2033 37.5121 29.2033 41.3975 31.8674 43.2209ZM34.8889 23.9555C35.1561 20.3086 35.6866 16.5844 36.221 12.9375C36.665 10.4794 37.553 7.78618 39.4194 5.72431C39.4194 5.72431 39.5097 5.64371 39.5097 5.56647C39.9537 5.64707 40.3074 5.72431 40.488 5.88214C41.1992 6.35899 41.4663 7.22874 41.7297 7.94402C42.6178 10.8756 42.4409 14.0491 42.3506 16.9807C42.2603 21.0238 41.9066 25.067 41.4626 29.1102C41.1089 31.8839 40.7514 34.6577 39.9537 37.4349C39.6865 38.2274 39.5097 38.8621 39.156 39.574C38.9791 39.8124 38.8023 40.1281 38.6217 40.3665L38.5313 40.5244C38.441 40.6049 38.3545 40.7628 38.2642 40.7628C38.2642 40.8434 38.1739 40.8434 38.1739 40.9206C38.1739 40.9206 38.0836 40.9206 37.997 40.9978C37.9067 40.9978 37.9067 40.9978 37.9067 40.9978C37.8164 40.9978 37.4627 40.9206 37.2859 40.84C37.109 40.6822 36.7515 40.3632 36.5747 40.1247C34.8889 38.0629 34.9755 34.6544 34.8889 32.1963C34.7083 29.4258 34.6218 26.7326 34.8889 23.9555Z" fill="#1D1D1B"/>
<path fill-rule="evenodd" clip-rule="evenodd" d="M22.2082 54.1615C22.2082 48.4527 22.2082 42.6667 22.2082 36.9579C22.2082 27.8406 22.2082 18.6461 22.2082 9.52889C22.2082 7.46701 22.2082 5.40512 22.2082 3.26601C22.2082 1.91941 20.8762 0.650048 19.5441 0.173197C18.3889 -0.223059 16.7897 0.0153688 16.7897 1.36197C16.7897 7.07075 16.7897 12.8568 16.7897 18.5656C16.7897 24.7478 16.7897 30.9335 16.7897 37.193C16.6994 36.9545 16.6129 36.6389 16.5226 36.4004C13.501 27.2832 10.4832 18.1659 7.46168 9.05203C6.75051 6.91292 6.12964 4.85104 5.41847 2.71192C4.97446 1.44256 3.81927 0.411629 2.39692 0.0959672C1.33204 -0.142458 0 0.0959668 0 1.36533C0 7.07411 0 12.8601 0 18.5689C0 27.6862 0 36.8001 0 45.9979C0 48.0598 0 50.1217 0 52.2608C0 53.6074 1.33204 54.8768 2.66408 55.3536C3.81927 55.7499 5.50501 55.5114 5.50501 54.1648C5.50501 48.4561 5.50501 42.67 5.50501 36.9613C5.50501 30.779 5.50501 24.5161 5.50501 18.3338C5.59532 18.5723 5.68187 18.8107 5.68187 19.1264C8.70341 28.2436 11.7212 37.3575 14.7427 46.4748C15.4539 48.6139 16.1651 50.6758 16.786 52.8182C17.23 54.007 18.3852 55.1185 19.8075 55.4342C20.8762 55.6659 22.2082 55.3502 22.2082 54.1615Z" fill="#1D1D1B"/>
<path d="M20.2214 68.0339C20.2063 68.007 20.1762 67.9835 20.1649 67.9701C19.9919 67.7518 19.8903 67.7518 19.4274 67.7518C19.2694 67.7518 19.0098 67.7518 18.6749 67.7652C18.3437 67.7787 18.0803 67.7921 17.9072 67.7921C17.6777 67.7921 17.5009 67.7921 17.388 67.7787C17.2563 67.4294 17.1848 67.0164 17.1848 66.553C17.1848 66.3347 17.1998 66.0123 17.2299 65.5858C17.26 65.1594 17.2751 64.837 17.2751 64.6187C17.2751 64.4004 17.26 63.9236 17.2299 63.1982L17.1848 62.1136C17.1697 61.8953 17.1697 61.7408 17.1697 61.6233C17.1547 61.5595 17.0117 61.5192 16.7634 61.5192C16.4586 61.5192 16.2591 61.6233 16.1425 61.8147C16.0973 61.865 16.086 61.9826 16.086 62.1639C16.086 62.268 16.086 62.4225 16.1011 62.6139C16.1161 62.8188 16.1161 62.9766 16.1161 63.0773C16.1161 63.9404 16.1161 64.4575 16.1312 64.612C16.1764 65.3743 16.2027 65.9922 16.2027 66.4824C16.2027 66.6235 16.2027 66.8317 16.1876 67.1003C16.1726 67.3858 16.1726 67.5906 16.1726 67.7317C16.1726 67.8727 16.2177 68.1951 16.3043 68.7257C16.3193 68.8163 16.3607 68.8801 16.4059 68.9204C16.5225 69.038 16.737 69.0883 17.0418 69.0883C17.0568 69.0883 18.9195 68.8701 19.5554 68.7794C19.7285 68.7794 19.8602 68.7794 19.9618 68.7659C20.1499 68.7559 20.18 68.3294 20.2214 68.0339Z" fill="#1D1D1B"/>
<path d="M27.7696 65.673L27.7395 65.4144C27.7245 65.1961 27.7245 65.0282 27.7245 64.9107C27.5514 63.3223 26.4527 61.4653 24.4132 61.4653C23.7209 61.4653 23.1263 61.66 22.6484 62.0596C21.6814 62.8589 20.9439 64.7696 20.9439 65.9953V66.3446C20.9439 68.0337 21.9711 69.1318 23.3446 69.4273C23.3596 69.4273 23.401 69.4408 23.4876 69.4542L23.6305 69.481C25.7565 69.481 26.7687 68.9001 27.1864 67.9195C27.4084 67.4393 27.7696 66.0961 27.7696 65.673ZM26.6257 65.4648C26.6257 66.8449 26.0049 68.3561 24.6616 68.3561C22.6522 68.3561 21.8432 67.6341 21.8432 65.8409C21.8583 65.8006 21.8583 65.7636 21.8733 65.7133C21.8733 65.6629 21.8733 65.6226 21.8884 65.5857C22.1931 64.1282 22.8291 62.5667 24.2288 62.5667C24.7632 62.5667 25.5458 62.916 25.9484 63.2753C25.9936 63.3156 26.05 63.3928 26.1366 63.5338C26.4677 64.0476 26.6257 64.6924 26.6257 65.4648Z" fill="#1D1D1B"/>
<path d="M33.8993 61.5428C33.8428 61.0122 33.7262 60.757 33.2069 60.757C33.0338 60.757 32.8871 60.7973 32.7892 60.8611L32.7328 61.0425C32.6876 61.1331 32.6764 61.1969 32.6764 61.2607C32.6764 61.5563 32.793 61.7779 33.0376 61.9189C33.4515 61.9189 33.7375 61.788 33.8993 61.5428ZM34.475 64.6021C34.4599 64.2293 34.3169 64.048 34.0686 64.048C33.9256 64.048 33.7375 64.1387 33.5192 64.32C33.5042 64.2931 33.5042 64.2427 33.5042 64.1789C33.5042 64.0379 33.5192 63.8163 33.5493 63.5208C33.5794 63.2353 33.5945 63.017 33.5945 62.876C33.5945 62.6577 33.5644 62.4764 33.5079 62.3353C33.1166 62.3353 32.8871 62.3622 32.8156 62.4126C32.6839 62.4898 32.6274 62.9432 32.6274 63.7558C32.6575 63.7961 32.6726 63.8734 32.6726 63.9741C32.6726 64.0379 32.6726 64.1286 32.6575 64.2461C32.6425 64.3737 32.6425 64.4778 32.6425 64.5416C32.6425 64.6323 32.6425 64.7095 32.6575 64.7465C32.2248 65.0185 31.8034 65.3005 31.3857 65.586C29.8241 66.6707 29.2033 67.2886 29.2033 68.7225C29.2033 69.3034 29.493 69.8844 30.0838 70.4519C30.4149 70.5795 30.7498 70.6467 31.0659 70.6467C31.5287 70.6467 31.9614 70.5191 32.3829 70.2739C32.413 70.2605 32.4544 70.2235 32.5146 70.1832C32.6312 70.106 32.7328 70.0019 32.7177 70.0019C33.1806 69.8474 33.4854 66.674 33.4854 65.6028V65.4617C33.4703 65.3979 33.4703 65.3576 33.4703 65.3341C33.4703 65.2938 33.6133 65.1797 33.9181 64.9849C34.2455 64.7565 34.4336 64.639 34.475 64.6021ZM32.5973 65.7237C32.5258 68.0475 32.4092 69.8642 31.1825 69.8642H31.111C30.6331 69.8508 30.1703 69.0012 30.1703 68.5478C30.1666 67.6076 31.5136 66.2542 32.5973 65.7237Z" fill="#1D1D1B"/>
<path d="M41.2556 68.3557C41.2556 67.8016 41.2105 67.1165 41.1239 66.2904L40.9057 64.2386C40.789 62.9088 40.6159 62.0827 39.7505 61.5824C39.5924 61.4917 39.3328 61.4413 38.9716 61.4413H38.7985C37.4552 61.4413 37.1353 61.4145 36.744 61.841C36.5859 62.1365 36.4693 62.3816 36.3978 62.6032C36.1231 63.2749 35.9801 63.829 35.95 64.2554C35.9049 65.6088 35.9049 65.9849 35.9049 67.0024C35.9049 67.2206 35.9049 67.5564 35.9199 68.0098V69.0172C35.9199 69.2624 36.2962 69.4034 36.5859 69.4034C36.8757 69.4034 37.0187 69.2993 37.0187 69.0945V68.9266C37.0036 68.8628 37.0036 68.809 37.0036 68.7721C37.0036 68.6546 37.0187 68.4766 37.0337 68.2314C37.0488 67.9863 37.0488 67.805 37.0488 67.6908V67.5497C37.0337 67.4859 37.0337 67.4456 37.0337 67.4221C37.0337 67.3449 37.0488 67.2274 37.0638 67.0729C37.0789 66.9184 37.0939 66.8009 37.0939 66.7371C37.109 65.7162 37.4138 65.6793 38.8436 65.6793C39.3065 65.6793 39.5812 65.6927 39.6677 65.7196C40.2472 65.8875 40.202 66.3005 40.202 67.5262V68.0937C40.2171 68.8695 40.2472 69.2557 40.8379 69.2557C41.2406 69.2456 41.2556 68.9232 41.2556 68.3557ZM39.9687 64.3159C39.9687 64.6383 39.837 64.7927 39.5623 64.7927C39.4908 64.7927 39.3893 64.7793 39.2576 64.7659C39.1146 64.7524 39.013 64.739 38.9377 64.739C38.8361 64.739 38.6931 64.7524 38.505 64.7793C38.3168 64.8196 38.1739 64.8297 38.0723 64.8297H37.696C37.1918 64.8297 36.9434 64.7524 36.9434 64.5845C36.9434 64.4301 37.2745 62.2742 38.5351 62.2742C38.9264 62.2742 39.4043 62.301 39.5322 62.6738C39.8257 63.4898 39.9687 64.0472 39.9687 64.3159Z" fill="#1D1D1B"/>
<path d="M51.5056 68.4333V68.3426C51.4905 68.3023 51.4905 68.2788 51.4905 68.2654C50.753 68.252 49.2065 68.2788 48.7286 67.8792C48.0776 67.352 47.7615 66.6535 47.7615 65.7636C47.7615 64.783 48.2808 63.6077 49.15 63.1443C49.2817 63.0805 49.5564 63.0167 49.9741 62.9764C50.9148 62.8857 51.419 62.7816 51.419 62.3048V62.1503C51.0879 61.9186 50.6815 61.8011 50.1773 61.8011C49.15 61.8011 48.0663 62.3182 47.4455 63.0536C46.7079 63.9435 46.3467 64.8871 46.3467 65.8543C46.3467 67.2345 47.1708 68.3561 48.8038 69.209C48.9355 69.2728 49.2366 69.3131 49.6843 69.3131C50.7229 69.3098 51.5056 69.2057 51.5056 68.4333Z" fill="#1D1D1B"/>
<path d="M59.1667 65.673L59.1366 65.4144C59.1215 65.1961 59.1215 65.0282 59.1215 64.9107C58.9484 63.3223 57.8497 61.4653 55.8102 61.4653C55.1179 61.4653 54.5233 61.66 54.0455 62.0596C53.0784 62.8589 52.3409 64.7696 52.3409 65.9953V66.3446C52.3409 68.0337 53.3681 69.1318 54.7416 69.4273C54.7566 69.4273 54.798 69.4408 54.8846 69.4542L55.0276 69.481C57.1535 69.481 58.1658 68.9001 58.5834 67.9195C58.8054 67.4393 59.1667 66.0961 59.1667 65.673ZM58.0265 65.4648C58.0265 66.8449 57.4057 68.3561 56.0623 68.3561C54.053 68.3561 53.244 67.6341 53.244 65.8409C53.259 65.8006 53.259 65.7636 53.2741 65.7133C53.2741 65.6629 53.2741 65.6226 53.2891 65.5857C53.5939 64.1282 54.2298 62.5667 55.6296 62.5667C56.1639 62.5667 56.9466 62.916 57.3492 63.2753C57.3944 63.3156 57.4508 63.3928 57.5374 63.5338C57.8647 64.0476 58.0265 64.6924 58.0265 65.4648Z" fill="#1D1D1B"/>
<path d="M64.7168 68.0339C64.7017 68.007 64.6716 67.9835 64.6603 67.9701C64.4872 67.7518 64.3857 67.7518 63.9228 67.7518C63.7648 67.7518 63.5052 67.7518 63.1703 67.7652C62.8391 67.7787 62.5757 67.7921 62.4026 67.7921C62.1731 67.7921 61.9963 67.7921 61.8834 67.7787C61.7517 67.4294 61.6802 67.0164 61.6802 66.553C61.6802 66.3347 61.6952 66.0123 61.7253 65.5858C61.7554 65.1594 61.7705 64.837 61.7705 64.6187C61.7705 64.4004 61.7554 63.9236 61.7253 63.1982L61.6802 62.1136C61.6651 61.8953 61.6651 61.7408 61.6651 61.6233C61.6501 61.5595 61.5071 61.5192 61.2588 61.5192C60.954 61.5192 60.7545 61.6233 60.6379 61.8147C60.5927 61.865 60.5814 61.9826 60.5814 62.1639C60.5814 62.268 60.5814 62.4225 60.5965 62.6139C60.6115 62.8188 60.6115 62.9766 60.6115 63.0773C60.6115 63.9404 60.6115 64.4575 60.6266 64.612C60.6717 65.3743 60.6981 65.9922 60.6981 66.4824C60.6981 66.6235 60.6981 66.8317 60.683 67.1003C60.668 67.3858 60.668 67.5906 60.668 67.7317C60.668 67.8727 60.7131 68.1951 60.7997 68.7257C60.8147 68.8163 60.8561 68.8801 60.9013 68.9204C61.0179 69.038 61.2324 69.0883 61.5372 69.0883C61.5522 69.0883 63.4148 68.8701 64.0508 68.7794C64.2239 68.7794 64.3556 68.7794 64.4572 68.7659C64.6453 68.7559 64.6754 68.3294 64.7168 68.0339Z" fill="#1D1D1B"/>
<path d="M71.0647 68.3557C71.0647 67.8016 71.0196 67.1165 70.933 66.2904L70.7148 64.2386C70.5981 62.9088 70.425 62.0827 69.5596 61.5824C69.4015 61.4917 69.1419 61.4413 68.7807 61.4413H68.6076C67.2643 61.4413 66.9444 61.4145 66.5531 61.841C66.395 62.1365 66.2784 62.3816 66.2069 62.6032C65.9322 63.2749 65.7892 63.829 65.7591 64.2554C65.714 65.6088 65.714 65.9849 65.714 67.0024C65.714 67.2206 65.714 67.5564 65.729 68.0098V69.0172C65.729 69.2624 66.1053 69.4034 66.3951 69.4034C66.6848 69.4034 66.8278 69.2993 66.8278 69.0945V68.9266C66.8127 68.8628 66.8127 68.809 66.8127 68.7721C66.8127 68.6546 66.8278 68.4766 66.8428 68.2314C66.8579 67.9863 66.8579 67.805 66.8579 67.6908V67.5497C66.8428 67.4859 66.8428 67.4456 66.8428 67.4221C66.8428 67.3449 66.8579 67.2274 66.8729 67.0729C66.888 66.9184 66.903 66.8009 66.903 66.7371C66.9181 65.7162 67.2229 65.6793 68.6527 65.6793C69.1156 65.6793 69.3903 65.6927 69.4768 65.7196C70.0563 65.8875 70.0111 66.3005 70.0111 67.5262V68.0937C70.0262 68.8695 70.0563 69.2557 70.647 69.2557C71.0497 69.2456 71.0647 68.9232 71.0647 68.3557ZM69.7778 64.3159C69.7778 64.6383 69.6461 64.7927 69.3714 64.7927C69.2999 64.7927 69.1983 64.7793 69.0667 64.7659C68.9237 64.7524 68.8221 64.739 68.7468 64.739C68.6452 64.739 68.5022 64.7524 68.3141 64.7793C68.1259 64.8196 67.983 64.8297 67.8814 64.8297H67.5051C67.0009 64.8297 66.7525 64.7524 66.7525 64.5845C66.7525 64.4301 67.0836 62.2742 68.3442 62.2742C68.7355 62.2742 69.2134 62.301 69.3413 62.6738C69.6348 63.4898 69.7778 64.0472 69.7778 64.3159Z" fill="#1D1D1B"/>
<path d="M77.3674 67.2343C77.3674 66.5761 77.0062 65.9582 76.2838 65.3504C75.9526 65.0649 75.6478 64.887 75.3882 64.7963C76.1671 64.3463 76.5584 63.6982 76.5584 62.8755C76.5584 62.5262 76.4869 62.1535 76.3402 61.7539C75.7758 61.146 74.7071 60.8001 73.7664 60.8001C72.7693 60.8001 72.4645 61.0856 72.4645 61.9621C72.4645 62.1031 72.4795 62.3247 72.4946 62.6068C72.5096 62.9023 72.5247 63.1105 72.5247 63.2516C72.5247 63.3154 72.5096 63.3926 72.4946 63.5101C72.4645 63.6277 72.4494 63.7049 72.4494 63.7419C72.4043 64.1918 72.393 64.5411 72.393 64.7862V65.3537C72.393 65.7802 72.4231 66.4116 72.4946 67.2511C72.6112 68.9268 72.0468 69.4943 74.534 69.4943C74.9517 69.4943 75.2151 69.4674 75.3129 69.4305C76.6864 68.8462 77.3674 68.1242 77.3674 67.2343ZM75.6027 62.9124C75.6027 63.2079 75.5011 63.4531 75.2828 63.6747C75.0383 63.9333 73.9658 64.3329 73.503 64.3832C73.4729 64.0877 73.4579 63.7754 73.4579 63.4799C73.4579 62.9762 73.488 62.4591 73.5444 61.9453C73.7326 61.8815 73.9056 61.8412 74.0938 61.8412C74.8501 61.8412 75.6027 62.2777 75.6027 62.9124ZM76.0655 67.2208C76.0655 67.466 75.979 67.6977 75.8209 67.9294C75.4898 68.4063 75.1549 68.601 74.5905 68.601C74.4889 68.601 74.3158 68.601 74.0976 68.5876H73.5933C73.6084 68.5238 73.6084 68.4197 73.6084 68.2921C73.6084 68.0201 73.5783 67.607 73.5369 67.0529C73.4917 66.5123 73.4654 66.1127 73.4654 65.8407C73.4654 65.8004 73.4654 65.7903 73.4804 65.7769C73.4955 65.6862 73.7401 65.6493 74.218 65.6493C74.4625 65.6493 74.6356 65.6627 74.7372 65.6996C75.4446 65.9414 76.0655 66.5627 76.0655 67.2208Z" fill="#1D1D1B"/>
<path d="M85.3032 65.673L85.2731 65.4144C85.2581 65.1961 85.2581 65.0282 85.2581 64.9107C85.085 63.3223 83.9862 61.4653 81.9468 61.4653C81.2544 61.4653 80.6599 61.66 80.182 62.0596C79.215 62.8589 78.4774 64.7696 78.4774 65.9953V66.3446C78.4774 68.0337 79.5047 69.1318 80.8781 69.4273C80.8932 69.4273 80.9346 69.4408 81.0211 69.4542L81.1641 69.481C83.2901 69.481 84.3023 68.9001 84.72 67.9195C84.942 67.4393 85.3032 66.0961 85.3032 65.673ZM84.1593 65.4648C84.1593 66.8449 83.5385 68.3561 82.1951 68.3561C80.1858 68.3561 79.3768 67.6341 79.3768 65.8409C79.3918 65.8006 79.3918 65.7636 79.4069 65.7133C79.4069 65.6629 79.4069 65.6226 79.4219 65.5857C79.7267 64.1282 80.3626 62.5667 81.7624 62.5667C82.2967 62.5667 83.0794 62.916 83.482 63.2753C83.5272 63.3156 83.5836 63.3928 83.6701 63.5338C84.0013 64.0476 84.1593 64.6924 84.1593 65.4648Z" fill="#1D1D1B"/>
<path d="M92.3134 63.517C92.3134 63.376 92.257 63.1947 92.1403 62.9764C91.448 61.6734 88.9908 61.7003 87.6174 61.7003C87.1997 61.9857 86.9514 62.4995 86.8799 63.2484C86.8234 64.1114 86.7933 64.7696 86.7783 65.2095C86.7218 65.7502 86.6767 66.1632 86.6353 66.4352C86.5638 67.043 86.5337 67.5333 86.5337 67.9195C86.5337 68.6046 86.6504 68.9505 86.8648 68.9505C87.4293 68.9505 87.719 68.6012 87.719 67.8927C87.719 67.7751 87.7039 67.5971 87.6889 67.3621C87.6738 67.1438 87.6588 66.9759 87.6588 66.8584C87.6588 66.5091 87.7303 66.2774 87.8883 66.1867L87.8733 66.2002L87.8883 66.227C89.1188 67.8658 90.1272 68.6919 90.9099 68.6919C91.098 68.6919 91.2711 68.6415 91.4291 68.524C91.4291 68.1882 91.2561 67.8658 90.8948 67.5703C90.5637 67.3386 90.2439 67.1069 89.9127 66.8852C89.5515 66.6132 89.3784 66.3546 89.3784 66.086H89.4348C90.3041 65.8677 90.8497 65.6864 91.098 65.5453C91.2711 65.4547 91.4893 65.2733 91.7339 65.0148C92.2419 64.511 92.3134 64.511 92.3134 63.517ZM91.1432 63.8931C90.3342 65.0786 88.829 65.2868 87.8469 65.2868C87.8319 65.2868 87.8168 65.2868 87.8018 65.2733H87.7453L87.7905 63.7252C87.8055 63.1947 88.1216 62.7044 88.6597 62.7044C89.2956 62.7044 90.7142 62.9898 90.9889 63.2853C91.0867 63.5305 91.1281 63.7353 91.1432 63.8931Z" fill="#1D1D1B"/>
<path d="M99.0488 68.3557C99.0488 67.8016 99.0037 67.1165 98.9171 66.2904L98.6989 64.2386C98.5822 62.9088 98.4091 62.0827 97.5437 61.5824C97.3856 61.4917 97.126 61.4413 96.7648 61.4413H96.5917C95.2484 61.4413 94.9285 61.4145 94.5372 61.841C94.3791 62.1365 94.2625 62.3816 94.191 62.6032C93.9163 63.2749 93.7733 63.829 93.7432 64.2554C93.6981 65.6088 93.6981 65.9849 93.6981 67.0024C93.6981 67.2206 93.6981 67.5564 93.7131 68.0098V69.0172C93.7131 69.2624 94.0894 69.4034 94.3791 69.4034C94.6689 69.4034 94.8119 69.2993 94.8119 69.0945V68.9266C94.7968 68.8628 94.7968 68.809 94.7968 68.7721C94.7968 68.6546 94.8119 68.4766 94.8269 68.2314C94.842 67.9863 94.842 67.805 94.842 67.6908V67.5497C94.8269 67.4859 94.8269 67.4456 94.8269 67.4221C94.8269 67.3449 94.842 67.2274 94.857 67.0729C94.8721 66.9184 94.8871 66.8009 94.8871 66.7371C94.9022 65.7162 95.2032 65.6793 96.6368 65.6793C97.0997 65.6793 97.3744 65.6927 97.4609 65.7196C98.0404 65.8875 97.9952 66.3005 97.9952 67.5262V68.0937C98.0103 68.8695 98.0404 69.2557 98.6311 69.2557C99.0375 69.2456 99.0488 68.9232 99.0488 68.3557ZM97.7657 64.3159C97.7657 64.6383 97.634 64.7927 97.3593 64.7927C97.2878 64.7927 97.1862 64.7793 97.0545 64.7659C96.9115 64.7524 96.8099 64.739 96.7347 64.739C96.6331 64.739 96.4901 64.7524 96.3019 64.7793C96.1138 64.8196 95.9708 64.8297 95.8692 64.8297H95.4929C94.9887 64.8297 94.7404 64.7524 94.7404 64.5845C94.7404 64.4301 95.0715 62.2742 96.3321 62.2742C96.7234 62.2742 97.2013 62.301 97.3292 62.6738C97.6189 63.4898 97.7657 64.0472 97.7657 64.3159Z" fill="#1D1D1B"/>
<path d="M106.495 61.8646C106.495 61.606 106.465 61.465 106.409 61.4247C106.307 61.3609 105.916 61.334 105.254 61.334C104.908 61.334 104.385 61.3474 103.692 61.3844C103 61.4247 102.477 61.4482 102.116 61.4482C101.811 61.4482 101.536 61.4347 101.276 61.4079C101.231 61.4079 101.175 61.3944 101.088 61.3676C100.987 61.3407 100.93 61.3273 100.885 61.3273C100.524 61.3273 100.336 61.4549 100.336 61.7135C100.336 61.8041 100.351 61.9452 100.366 62.1399C100.381 62.3347 100.381 62.4892 100.381 62.5798V62.6201C100.396 62.6604 100.498 62.684 100.671 62.684C100.889 62.684 101.205 62.6571 101.626 62.5933C102.044 62.5295 102.364 62.5026 102.582 62.5026C102.714 62.5026 102.785 62.5295 102.785 62.5664C102.785 62.6168 102.77 62.694 102.755 62.7847C102.74 62.8754 102.725 62.9392 102.725 62.9795C102.582 64.4369 102.507 66.398 102.507 68.836C102.507 68.9905 102.65 69.0677 102.94 69.0677C103.244 69.0677 103.519 69.0173 103.764 68.8998C103.82 68.7453 103.85 68.2416 103.85 67.392C103.85 67.1603 103.85 66.8111 103.835 66.3477C103.82 65.8842 103.805 65.535 103.805 65.2898C103.805 64.3999 103.892 63.4832 104.05 62.5429H105.438C105.525 62.5429 105.656 62.5563 105.829 62.5832C105.988 62.6101 106.119 62.6235 106.191 62.6235C106.394 62.6269 106.495 62.3683 106.495 61.8646Z" fill="#1D1D1B"/>
<path d="M108.836 62.2545C108.749 61.6098 108.531 61.2874 108.17 61.2874C107.895 61.2874 107.606 61.5829 107.606 61.828V62.0094C107.606 62.2545 107.809 62.4493 108.211 62.5903C108.55 62.5769 108.606 62.5097 108.836 62.2545ZM109.385 67.5301C109.385 67.0801 109.329 66.3951 109.227 65.4783C109.156 64.8201 109.111 64.3802 109.111 64.1619C109.111 63.8664 109.065 63.5944 108.968 63.3627C108.723 63.2452 108.52 63.1948 108.373 63.1948C107.982 63.1948 107.782 63.5037 107.782 64.125C107.782 64.4339 107.828 64.7832 107.914 65.1828C107.986 65.4917 108.016 65.6328 108.016 65.6093C108.016 65.804 108.001 66.113 107.986 66.5126C107.955 66.9122 107.94 67.2212 107.94 67.4294C107.94 68.5275 108.159 69.1823 108.591 69.4174H108.663C108.708 69.4039 108.719 69.4039 108.734 69.4039C108.749 69.4039 108.791 69.4039 108.836 69.4174H108.922C109.227 69.3233 109.385 68.692 109.385 67.5301Z" fill="#1D1D1B"/>
<path d="M117.31 63.4034C117.253 62.6411 117.107 62.2549 116.892 62.2549C116.847 62.2549 116.76 62.3053 116.632 62.3959C116.459 62.537 116.313 62.7049 116.215 62.8996C115.635 64.1623 115.218 65.1193 114.958 65.7641C114.668 66.3316 114.454 66.7581 114.292 67.0267C114.134 67.3223 113.901 67.6984 113.743 67.8025C113.152 67.4297 112.211 65.3007 111.85 64.1522C111.677 63.625 111.59 63.3261 111.575 63.2757C111.459 62.8627 111.489 62.6814 110.981 62.6814C110.751 62.6814 110.518 62.9399 110.518 63.1448C110.518 63.2086 110.574 63.4806 110.706 63.944C110.849 64.4746 111.067 65.0287 111.342 65.5828C111.79 66.523 112.049 67.0536 112.11 67.1711C112.603 68.2928 113.163 69.1592 113.799 69.7502C114.16 69.7368 114.364 69.505 114.405 69.0282C114.996 68.1383 115.346 67.5708 115.447 67.3525C115.59 67.057 115.763 66.7447 115.966 66.3988C116.196 65.9992 116.343 65.7272 116.399 65.5861C116.817 64.4847 117.122 63.7627 117.31 63.4034Z" fill="#1D1D1B"/>
<path d="M123.741 68.3557C123.741 67.8016 123.695 67.1165 123.609 66.2904L123.391 64.2386C123.274 62.9088 123.101 62.0827 122.235 61.5824C122.077 61.4917 121.818 61.4413 121.457 61.4413H121.283C119.94 61.4413 119.62 61.4145 119.229 61.841C119.071 62.1365 118.954 62.3816 118.883 62.6032C118.608 63.2749 118.465 63.829 118.435 64.2554C118.39 65.6088 118.39 65.9849 118.39 67.0024C118.39 67.2206 118.39 67.5564 118.405 68.0098V69.0172C118.405 69.2624 118.781 69.4034 119.071 69.4034C119.361 69.4034 119.504 69.2993 119.504 69.0945V68.9266C119.489 68.8628 119.489 68.809 119.489 68.7721C119.489 68.6546 119.504 68.4766 119.519 68.2314C119.534 67.9863 119.534 67.805 119.534 67.6908V67.5497C119.519 67.4859 119.519 67.4456 119.519 67.4221C119.519 67.3449 119.534 67.2274 119.549 67.0729C119.564 66.9184 119.579 66.8009 119.579 66.7371C119.594 65.7162 119.895 65.6793 121.329 65.6793C121.791 65.6793 122.066 65.6927 122.153 65.7196C122.732 65.8875 122.687 66.3005 122.687 67.5262V68.0937C122.702 68.8695 122.732 69.2557 123.323 69.2557C123.725 69.2456 123.741 68.9232 123.741 68.3557ZM122.454 64.3159C122.454 64.6383 122.322 64.7927 122.047 64.7927C121.976 64.7927 121.874 64.7793 121.742 64.7659C121.599 64.7524 121.498 64.739 121.423 64.739C121.321 64.739 121.178 64.7524 120.99 64.7793C120.802 64.8196 120.659 64.8297 120.557 64.8297H120.181C119.677 64.8297 119.428 64.7524 119.428 64.5845C119.428 64.4301 119.759 62.2742 121.02 62.2742C121.411 62.2742 121.889 62.301 122.017 62.6738C122.311 63.4898 122.454 64.0472 122.454 64.3159Z" fill="#1D1D1B"/>
<path fill-rule="evenodd" clip-rule="evenodd" d="M116.523 37.1696C119.169 39.8293 115.124 39.4061 123.665 44.534C128.918 47.6872 129.02 45.9847 131.631 47.1466C132.835 47.6839 133.663 47.5596 135.221 47.4455C143.318 46.8544 147.559 46.8443 152.865 41.6124C158.189 36.3637 163.86 36.7566 156.451 30.2654C153.188 27.4076 155.01 27.6796 153.301 25.9872C150.701 23.4148 151.777 23.5022 150.013 21.8567C148.011 19.9862 147.025 21.4974 145.102 19.6941C142.073 16.8497 141.922 19.4624 139.45 18.5691C137.317 17.7967 135.198 17.9243 133.008 18.9486C130.228 20.2482 131.578 20.6545 127.53 21.1313C126.036 14.9423 129.072 16.561 127.191 14.7207C125.765 13.3237 124.583 11.5372 123.059 10.4089C120.629 8.61568 119.184 9.8481 116.29 9.13954C113.047 8.34367 112.369 8.10188 108.64 8.70634C106.006 9.13282 103.598 9.73728 100.893 9.98914C97.7168 10.2847 94.255 12.5379 92.1779 14.2036L85.9843 20.6142C83.9599 22.9884 83.7379 29.1404 82.9891 32.8142C82.3983 35.7189 79.9149 36.6995 84.6974 37.0924C85.8488 37.1864 86.8159 37.7237 87.4894 38.3047C88.7575 39.4061 88.3097 39.2248 90.0557 40.0543C97.0056 43.362 103.696 43.4292 111.338 40.5278C114.142 39.4666 115.195 39.292 116.523 37.1696Z" fill="#262626"/>
<path fill-rule="evenodd" clip-rule="evenodd" d="M85.0286 27.7495C85.7435 28.8208 85.9091 29.5394 87.433 28.851C88.6785 28.2868 89.0548 27.4708 90.161 27.6454C90.447 29.0726 89.9127 29.0122 89.8074 30.117C91.1657 30.52 94.2738 30.3353 96.0198 30.6912C96.0311 32.152 94.6576 32.0311 92.9455 32.4677C92.7687 33.1259 92.6972 33.0453 92.5956 33.2199L84.5281 35.3422C85.9053 35.8526 96.2004 34.0493 97.3518 33.7001C99.5794 33.0251 100.558 32.3803 102.379 31.5207C106.842 29.4118 106.736 30.8558 111.906 26.7421C116.207 23.3202 123.94 20.0964 123.906 17.88C120.79 18.5517 111.639 25.1974 110.202 25.4156C110.849 25.1235 111.481 24.331 112.027 23.9246C112.667 23.4444 113.532 22.9541 114.251 22.5042C116.663 20.9896 121.189 18.508 123.086 16.7719C124.805 15.2003 125.031 14.6193 123.217 12.9638C122.311 13.9007 123.161 14.2667 120.301 16.4394C119.199 17.2756 117.351 18.5886 115.812 18.9849L116.813 17.9976C117.212 17.7357 117.547 17.5543 117.919 17.2924C119.884 15.9189 122.931 14.0115 122.254 11.184C118.845 9.61575 117.453 10.6232 114.13 11.2478L114.435 10.6736C114.461 10.6265 114.503 10.556 114.533 10.509C114.736 10.1463 114.725 10.3848 114.841 9.93813C112.031 9.49486 110.725 10.0221 107.922 10.3948C105.363 10.734 103.662 12.3056 102.571 12.3157L103.971 10.8314C100.396 11.2041 99.2746 11.1101 96.6143 12.9336C96.8325 13.5716 96.5503 12.9671 97.0997 13.3768C97.6114 13.7529 97.2916 13.2358 97.6453 13.7429C94.6087 15.0727 93.7959 14.1324 90.7292 17.111C89.0924 18.6994 86.9514 20.1535 85.879 22.5478C85.3032 23.8474 84.4942 26.1914 85.0286 27.7495Z" fill="#D99C63"/>
<path fill-rule="evenodd" clip-rule="evenodd" d="M132.508 21.0575C133.163 21.9541 133.934 21.7157 134.359 23.566C132.301 23.6029 132.342 21.8198 128.192 22.6291C125.656 23.1227 124.824 23.932 124.583 26.098C125.501 26.0241 126.691 24.926 127.571 27.0114C126.416 26.9946 126.021 27.1424 125.031 27.2028C123.827 27.2767 124.03 27.0148 122.852 27.1121C121.806 28.4285 121.562 29.99 122.841 31.3064C123.872 32.3709 123.09 31.5952 124.102 31.7799C125.486 33.9862 124.294 34.0466 127.507 34.7485C129.701 35.2253 130.837 35.0675 132.376 36.2328L131.797 36.5048C131.262 36.7398 131.605 36.4712 131.089 36.8036L138.318 38.3316C139.853 38.4793 138.717 38.3215 139.209 38.1603C139.492 38.0696 138.829 37.8782 140.082 37.9991C140.21 38.0126 140.85 38.1872 141.121 38.2443C141.761 38.3752 142.743 38.5297 143.345 38.5096C144.455 38.476 144.541 38.1771 145.49 37.9488C146.329 37.7473 146.321 37.7674 147.021 38.0864L147.687 38.4055C149.685 38.7379 154.212 36.2227 154.972 35.1917C156.285 33.4052 154.641 32.6765 153.497 30.2318C153.068 29.3117 153.2 28.761 152.895 27.9651C151.427 27.7502 151.544 28.0994 150.137 28.3446C150.419 27.4648 150.532 27.8173 150.528 27.0786L149.497 25.9805L150.426 25.8059C150.46 25.8025 150.551 25.8092 150.603 25.7891C149.512 21.5276 148.421 22.8306 144.511 22.1052C143.83 21.259 144.094 19.684 141.817 20.0736C140.5 20.2986 138.382 21.2086 137.215 20.7485C137.787 20.1474 137.987 20.5269 138.31 19.7545C134.912 19.2542 134.66 20.2247 132.508 21.0575Z" fill="#F5E3A4"/>
<path fill-rule="evenodd" clip-rule="evenodd" d="M88.4941 36.7434C90.2701 39.7657 93.1148 41.0216 96.8325 41.6025C101.382 42.3145 102.221 40.8705 105.769 40.3634C106.714 40.2291 107.869 39.994 108.636 39.6179C107.5 38.7011 104.52 39.0437 103.527 37.5258C105.536 37.7004 107.94 39.0873 110.089 38.6978C112.497 38.2612 114.702 37.237 116.414 36.421C115.869 30.0641 113.637 27.1425 123.074 22.7703L125.814 21.8099L125.528 20.3961C125.193 19.5667 125.415 20.0804 125.182 19.7782C124.583 20.1174 125.065 19.8152 124.647 20.1476L123.417 21.2424C122.773 21.7595 122.1 22.1322 121.325 22.5319C118.631 23.9255 115.808 25.8497 113.329 27.606C109.859 30.0641 110.446 30.4906 104.829 32.2771C103.015 32.8547 101.021 33.0494 99.3273 33.6472C95.7187 34.9233 89.7321 35.8736 88.4941 36.7434Z" fill="#BB7533"/>
<path fill-rule="evenodd" clip-rule="evenodd" d="M120.99 39.5739L119.131 39.0198C119.933 41.3268 122.055 41.8943 123.812 43.3249C125.347 44.5741 127.462 45.8602 130.63 45.8266C129.93 44.0838 128.534 44.0636 127.834 43.0696C132.188 43.6506 129.072 47.0221 138.882 46.0953L137.953 45.0509C140.425 45.145 142.984 46.2699 145.358 45.0207C145.61 44.8864 145.858 44.7286 146.035 44.4431C146.34 43.9495 146.11 44.2752 146.238 43.926L146.419 43.3651C148.357 43.2073 149.791 42.8883 150.566 41.5048C148.519 42.1193 142.69 42.7137 140.203 42.5525C137.479 42.3779 130.051 40.4537 127.496 39.4664C125.787 38.8048 125.69 38.1534 123.771 37.878C120.249 37.3709 119.797 35.712 117.776 33.2573C117.261 34.1069 117.946 36.1352 118.525 37.1056C119.545 38.8048 120.858 38.0896 120.99 39.5739Z" fill="#BB7533"/>
<path fill-rule="evenodd" clip-rule="evenodd" d="M158.697 35.8397C158.712 33.8685 156.744 31.4271 155.228 30.6346C155.555 32.0786 159.822 36.1788 149.7 38.7511C142.743 40.5209 140.519 39.3187 135.473 38.4086C130.916 37.5859 126.45 36.7363 123.654 34.3453C122.642 33.4789 120.328 31.4741 120.17 29.6574C119.996 27.666 121.31 26.7224 122.115 25.8191C122.164 25.762 122.525 25.3422 122.574 25.2684C123.007 24.6471 122.698 25.265 123.01 24.496C119.123 25.2448 116.219 28.7507 117.743 31.3432C118.382 32.4312 122.589 36.34 124.685 37.193C127.187 38.2105 125.983 38.6 130.796 39.6612C136.997 41.0279 138.942 41.5182 145.644 40.8298C151.352 40.2455 153.659 38.9963 158.697 35.8397Z" fill="#D99C63"/>
<path fill-rule="evenodd" clip-rule="evenodd" d="M92.5956 33.2238C92.6972 33.0492 92.7687 33.1298 92.9455 32.4716C94.6539 32.0351 96.031 32.156 96.0198 30.6952C94.2738 30.3392 91.1657 30.5239 89.8073 30.1209C89.9127 29.0161 90.447 29.0766 90.161 27.6494C89.0548 27.4748 88.6822 28.2908 87.433 28.8549C85.909 29.5433 85.7397 28.8214 85.0285 27.7535C84.863 28.0591 85.0135 27.5083 84.7953 28.3814C84.5055 29.5467 84.6109 32.7638 84.7689 33.8417C90.3003 33.8719 91.3539 32.1727 92.5956 33.2238Z" fill="#BB7533"/>
<path fill-rule="evenodd" clip-rule="evenodd" d="M127.564 30.0171L128.61 30.7424C129.167 31.1085 129.072 30.9674 129.422 31.4308C129.976 32.1696 129.851 32.7707 130.476 33.4625C131.729 34.8528 133.72 34.0602 135.823 34.3356L136.004 35.4169C136.007 35.4404 136.007 35.5076 136.026 35.5479C141.162 32.7573 142.434 34.5942 144.342 33.5733C143.552 31.9849 134.118 33.4625 132.256 32.6263C131.15 32.1293 130.751 31.0816 130.397 29.6175C128.538 30.0876 130.596 30.4973 127.564 30.0171Z" fill="#262626"/>
<path fill-rule="evenodd" clip-rule="evenodd" d="M134.039 29.013L133.994 30.0574C135.149 29.7148 135.36 29.2313 136.579 28.7712C137.132 28.563 139.179 27.9216 139.909 27.8377C143.559 27.4179 143.345 30.1682 145.012 30.6887C146.103 30.1111 144.933 30.8868 145.73 29.6913C146.912 29.6007 147.401 29.604 148.015 28.8585C146.585 28.0358 145.742 29.4328 143.857 28.0694C140.628 25.7288 137.945 26.9142 134.999 27.3407C132.579 27.6899 132.293 27.0888 130.307 26.7463C131.571 28.0895 131.706 28.5731 134.039 29.013Z" fill="#262626"/>
<path fill-rule="evenodd" clip-rule="evenodd" d="M136.523 22.1048C136.843 22.6723 137.068 22.4238 137.467 23.2062C136.545 23.5185 135.973 24.0491 135.703 24.808C137.283 24.6871 137.915 23.4614 140.21 23.5252C142.197 23.579 142.946 24.3916 145.019 24.6066C144.459 23.5958 142.912 22.4003 141.554 22.1148C138.735 21.5204 139.251 21.6279 136.523 22.1048Z" fill="#262626"/>
<path fill-rule="evenodd" clip-rule="evenodd" d="M147.431 33.2605C147.454 33.3176 147.503 33.3411 147.525 33.4251C147.544 33.5057 147.604 33.5494 147.623 33.5829C147.649 33.6266 147.785 33.818 147.811 33.8751C148.346 35.0571 147.085 35.2485 148.21 36.2896C148.966 35.4097 148.364 34.5937 149.888 33.5594C151.815 32.2531 151.6 32.1792 153.068 31.7528C152.515 30.9132 153.279 31.6923 152.53 31.2558C152.086 31.0005 152.357 31.2591 151.943 31.0173C151.224 30.5976 151.886 30.8024 151.153 30.1543C150.208 31.1416 151.898 31.9845 147.431 33.2605Z" fill="#262626"/>
</svg>
