<svg width="91" height="40" viewBox="0 0 91 40" fill="none" xmlns="http://www.w3.org/2000/svg">
<path fill-rule="evenodd" clip-rule="evenodd" d="M61.2926 29.2745C56.733 29.2745 26.1455 29.2745 21.5884 29.2745C20.8789 29.2745 20.2717 29.2745 19.6646 29.2745C18.6525 29.2745 17.7407 29.2745 16.929 29.4988C16.3218 29.6338 15.6123 29.9038 15.4099 30.2175C15.1074 30.8906 16.7266 31.4287 18.2456 31.4287C22.8049 31.4287 53.2902 31.4287 57.9498 31.4287C58.5567 31.4287 59.2662 31.4287 59.8737 31.4287C60.7853 31.4287 61.7037 31.3907 62.609 31.2043C63.225 31.077 63.8999 30.7993 64.0279 30.4856C64.3048 29.8107 62.8117 29.2745 61.2926 29.2745Z" fill="#1D1D1B"/>
<path fill-rule="evenodd" clip-rule="evenodd" d="M30.8049 22.8552C30.6537 23.3495 33.0675 24.7394 33.5213 24.7394C35.6348 24.7394 48.4391 24.7394 50.5505 24.7394C50.902 24.7394 49.7984 23.9275 49.7451 23.8857C49.3467 23.5701 48.4882 22.8533 47.8852 22.8533C46.9286 22.8533 35.181 22.8533 34.1754 22.8533C35.835 17.153 37.4436 11.4984 39.1033 5.84186C39.3546 4.94444 39.606 4.04701 39.9086 3.14957C40.0087 2.70085 37.646 1.26343 37.1432 1.26343C35.0809 1.26343 32.9695 1.26343 30.9072 1.26343C30.5557 1.26343 31.6103 2.0715 31.7126 2.11713C32.1152 2.43085 32.9205 3.14957 33.5235 3.14957C34.5291 3.14957 35.5347 3.14957 36.4913 3.14957C34.8828 8.84984 33.2231 14.5045 31.5634 20.2047C31.3077 21.0603 31.0563 21.9577 30.8049 22.8552Z" fill="#1D1D1B"/>
<path fill-rule="evenodd" clip-rule="evenodd" d="M18.0432 24.4716C19.6518 25.639 22.3681 24.8309 23.8276 23.7985C24.7842 23.1254 25.3359 22.228 25.6875 21.2393C26.2904 19.6231 26.5418 17.9176 26.7442 16.2577C27.0957 13.5654 27.2981 10.8712 27.3471 8.1789C27.3471 7.01145 27.3471 5.84407 27.1469 4.67851C27.0468 3.87044 26.8955 3.06236 26.3927 2.34365C24.8331 0.278782 20.9621 1.49185 19.5026 3.01673C18.2456 4.45225 17.4914 6.20338 17.1889 7.95457C16.8374 9.9738 16.586 12.0387 16.4347 14.1035C16.2344 15.9897 16.3346 17.8739 16.4347 19.7581C16.5348 21.2393 16.5348 23.4392 18.0432 24.4716ZM19.754 13.5636C19.9053 11.4987 20.2057 9.39005 20.5082 7.32518C20.7596 5.93341 21.2624 4.40852 22.3192 3.24109C22.3192 3.24109 22.3703 3.19546 22.3703 3.15172C22.6217 3.19736 22.822 3.24109 22.9242 3.33045C23.3269 3.60045 23.4781 4.0929 23.6273 4.49789C24.1301 6.15774 24.0299 7.95457 23.9788 9.61443C23.9277 11.9036 23.7274 14.1929 23.476 16.4821C23.2758 18.0526 23.0733 19.6231 22.6217 21.1956C22.4704 21.6443 22.3703 22.0036 22.17 22.4067C22.0699 22.5417 21.9698 22.7204 21.8675 22.8554L21.8163 22.9448C21.7652 22.9904 21.7162 23.0798 21.6651 23.0798C21.6651 23.1254 21.614 23.1254 21.614 23.1692C21.614 23.1692 21.5628 23.1692 21.5138 23.2129C21.4627 23.2129 21.4627 23.2129 21.4627 23.2129C21.4116 23.2129 21.2113 23.1692 21.1112 23.1235C21.011 23.0342 20.8086 22.8536 20.7085 22.7185C19.754 21.5511 19.803 19.6212 19.754 18.2295C19.6518 16.6608 19.6028 15.1359 19.754 13.5636Z" fill="#1D1D1B"/>
<path fill-rule="evenodd" clip-rule="evenodd" d="M12.5742 30.6661C12.5742 27.4338 12.5742 24.1578 12.5742 20.9255C12.5742 15.7633 12.5742 10.5574 12.5742 5.39524C12.5742 4.2278 12.5742 3.06037 12.5742 1.84921C12.5742 1.08677 11.8201 0.368056 11.0658 0.0980637C10.4118 -0.126296 9.50629 0.00870166 9.50629 0.771144C9.50629 4.00344 9.50629 7.27949 9.50629 10.5118C9.50629 14.0121 9.50629 17.5145 9.50629 21.0586C9.45516 20.9236 9.40619 20.7449 9.35506 20.6098C7.64424 15.4477 5.93556 10.2855 4.22479 5.12524C3.82212 3.91408 3.47059 2.74665 3.06793 1.53548C2.81653 0.816774 2.16246 0.233063 1.35713 0.0543363C0.754198 -0.0806595 0 0.0543361 0 0.773047C0 4.00535 0 7.28136 0 10.5137C0 15.6759 0 20.8361 0 26.0439C0 27.2113 0 28.3788 0 29.5899C0 30.3524 0.754198 31.0711 1.5084 31.3411C2.16246 31.5655 3.11692 31.4304 3.11692 30.668C3.11692 27.4357 3.11692 24.1597 3.11692 20.9274C3.11692 17.427 3.11692 13.881 3.11692 10.3806C3.16806 10.5156 3.21706 10.6506 3.21706 10.8293C4.92785 15.9915 6.63652 21.1517 8.34728 26.3139C8.74996 27.5251 9.15264 28.6925 9.50419 29.9055C9.75559 30.5786 10.4097 31.208 11.215 31.3867C11.8201 31.5179 12.5742 31.3392 12.5742 30.6661Z" fill="#1D1D1B"/>
<path d="M11.4493 38.5206C11.4408 38.5054 11.4237 38.4921 11.4173 38.4845C11.3194 38.3609 11.2618 38.3609 10.9997 38.3609C10.9103 38.3609 10.7633 38.3609 10.5737 38.3685C10.3862 38.3761 10.237 38.3837 10.139 38.3837C10.0091 38.3837 9.90897 38.3837 9.84505 38.3761C9.77048 38.1784 9.72999 37.9445 9.72999 37.6822C9.72999 37.5586 9.73849 37.376 9.75553 37.1345C9.77257 36.8931 9.78112 36.7106 9.78112 36.587C9.78112 36.4634 9.77257 36.1934 9.75553 35.7827L9.72999 35.1686C9.72144 35.045 9.72144 34.9575 9.72144 34.891C9.71295 34.8548 9.63198 34.832 9.4914 34.832C9.31882 34.832 9.20586 34.891 9.13985 34.9993C9.11425 35.0278 9.10786 35.0944 9.10786 35.1971C9.10786 35.256 9.10786 35.3435 9.11641 35.4518C9.1249 35.5679 9.1249 35.6572 9.1249 35.7142C9.1249 36.2029 9.1249 36.4957 9.13345 36.5832C9.15904 37.0148 9.17393 37.3646 9.17393 37.6422C9.17393 37.7221 9.17393 37.84 9.16538 37.992C9.15689 38.1537 9.15689 38.2696 9.15689 38.3495C9.15689 38.4294 9.18242 38.6119 9.23146 38.9123C9.23995 38.9636 9.26339 38.9998 9.28898 39.0226C9.355 39.0892 9.47645 39.1176 9.64903 39.1176C9.65752 39.1176 10.7122 38.9941 11.0722 38.9427C11.1702 38.9427 11.2448 38.9427 11.3023 38.9351C11.4088 38.9294 11.4259 38.688 11.4493 38.5206Z" fill="#1D1D1B"/>
<path d="M15.7231 37.1839L15.706 37.0375C15.6975 36.9139 15.6975 36.8188 15.6975 36.7523C15.5995 35.8529 14.9775 34.8015 13.8227 34.8015C13.4307 34.8015 13.0941 34.9118 12.8235 35.138C12.276 35.5906 11.8584 36.6724 11.8584 37.3664V37.5642C11.8584 38.5205 12.44 39.1423 13.2177 39.3096C13.2262 39.3096 13.2496 39.3172 13.2986 39.3248L13.3795 39.34C14.5833 39.34 15.1564 39.0111 15.3929 38.4559C15.5186 38.184 15.7231 37.4235 15.7231 37.1839ZM15.0754 37.066C15.0754 37.8474 14.7239 38.7031 13.9633 38.7031C12.8256 38.7031 12.3676 38.2943 12.3676 37.279C12.3761 37.2561 12.3761 37.2352 12.3846 37.2067C12.3846 37.1782 12.3846 37.1554 12.3932 37.1345C12.5657 36.3092 12.9258 35.4251 13.7183 35.4251C14.0209 35.4251 14.464 35.6229 14.6919 35.8263C14.7175 35.8491 14.7495 35.8929 14.7985 35.9727C14.986 36.2636 15.0754 36.6287 15.0754 37.066Z" fill="#1D1D1B"/>
<path d="M19.1937 34.8454C19.1617 34.545 19.0957 34.4005 18.8017 34.4005C18.7037 34.4005 18.6206 34.4233 18.5652 34.4594L18.5332 34.5621C18.5076 34.6134 18.5013 34.6495 18.5013 34.6857C18.5013 34.853 18.5673 34.9785 18.7058 35.0583C18.9402 35.0583 19.1021 34.9842 19.1937 34.8454ZM19.5197 36.5776C19.5111 36.3665 19.4301 36.2638 19.2896 36.2638C19.2086 36.2638 19.1021 36.3152 18.9785 36.4178C18.97 36.4026 18.97 36.3741 18.97 36.3379C18.97 36.2581 18.9785 36.1326 18.9955 35.9653C19.0126 35.8037 19.0211 35.6801 19.0211 35.6002C19.0211 35.4766 19.0041 35.374 18.9721 35.2941C18.7505 35.2941 18.6206 35.3093 18.5801 35.3379C18.5055 35.3816 18.4736 35.6383 18.4736 36.0984C18.4906 36.1212 18.4992 36.165 18.4992 36.222C18.4992 36.2581 18.4992 36.3095 18.4906 36.376C18.4821 36.4482 18.4821 36.5072 18.4821 36.5433C18.4821 36.5947 18.4821 36.6384 18.4906 36.6593C18.2456 36.8133 18.007 36.973 17.7705 37.1346C16.8863 37.7488 16.5348 38.0987 16.5348 38.9105C16.5348 39.2394 16.6989 39.5684 17.0334 39.8897C17.2208 39.962 17.4105 40 17.5894 40C17.8515 40 18.0965 39.9278 18.3351 39.7889C18.3522 39.7813 18.3756 39.7604 18.4097 39.7376C18.4757 39.6939 18.5332 39.6349 18.5247 39.6349C18.7868 39.5474 18.9594 37.7507 18.9594 37.1442V37.0643C18.9508 37.0281 18.9508 37.0053 18.9508 36.992C18.9508 36.9692 19.0318 36.9046 19.2043 36.7943C19.3897 36.665 19.4962 36.5985 19.5197 36.5776ZM18.4565 37.2126C18.416 38.5283 18.35 39.557 17.6555 39.557H17.615C17.3444 39.5494 17.0824 39.0683 17.0824 38.8116C17.0803 38.2793 17.8429 37.513 18.4565 37.2126Z" fill="#1D1D1B"/>
<path d="M23.3588 38.7028C23.3588 38.3891 23.3333 38.0012 23.2843 37.5335L23.1607 36.3718C23.0946 35.6188 22.9966 35.1511 22.5066 34.8678C22.4171 34.8165 22.2701 34.7879 22.0656 34.7879H21.9676C21.207 34.7879 21.0259 34.7728 20.8044 35.0142C20.7149 35.1815 20.6488 35.3203 20.6084 35.4458C20.4528 35.8261 20.3719 36.1398 20.3548 36.3813C20.3293 37.1476 20.3293 37.3605 20.3293 37.9366C20.3293 38.0602 20.3293 38.2503 20.3378 38.507V39.0774C20.3378 39.2162 20.5508 39.296 20.7149 39.296C20.8789 39.296 20.9599 39.2371 20.9599 39.1211V39.0261C20.9514 38.99 20.9514 38.9595 20.9514 38.9386C20.9514 38.8721 20.9599 38.7713 20.9684 38.6325C20.9769 38.4937 20.9769 38.391 20.9769 38.3264V38.2465C20.9684 38.2104 20.9684 38.1875 20.9684 38.1742C20.9684 38.1305 20.9769 38.064 20.9854 37.9765C20.994 37.889 21.0025 37.8225 21.0025 37.7864C21.011 37.2084 21.1836 37.1875 21.9932 37.1875C22.2553 37.1875 22.4108 37.1951 22.4598 37.2103C22.7879 37.3054 22.7623 37.5392 22.7623 38.2332V38.5545C22.7708 38.9938 22.7879 39.2124 23.1223 39.2124C23.3503 39.2067 23.3588 39.0242 23.3588 38.7028ZM22.6302 36.4155C22.6302 36.5981 22.5556 36.6855 22.4001 36.6855C22.3596 36.6855 22.3021 36.6779 22.2276 36.6703C22.1466 36.6627 22.0891 36.6551 22.0464 36.6551C21.9889 36.6551 21.9079 36.6627 21.8014 36.6779C21.6949 36.7007 21.614 36.7064 21.5564 36.7064H21.3434C21.0579 36.7064 20.9173 36.6627 20.9173 36.5676C20.9173 36.4802 21.1047 35.2595 21.8185 35.2595C22.04 35.2595 22.3106 35.2747 22.383 35.4858C22.5492 35.9478 22.6302 36.2634 22.6302 36.4155Z" fill="#1D1D1B"/>
<path d="M29.1624 38.7468V38.6954C29.1538 38.6726 29.1538 38.6593 29.1538 38.6517C28.7362 38.6441 27.8606 38.6593 27.59 38.4331C27.2214 38.1346 27.0425 37.7391 27.0425 37.2352C27.0425 36.68 27.3365 36.0145 27.8286 35.7522C27.9032 35.716 28.0587 35.6799 28.2952 35.6571C28.8278 35.6057 29.1133 35.5468 29.1133 35.2768V35.1894C28.9259 35.0582 28.6957 34.9916 28.4103 34.9916C27.8286 34.9916 27.215 35.2844 26.8635 35.7008C26.4459 36.2047 26.2414 36.7389 26.2414 37.2866C26.2414 38.068 26.708 38.7031 27.6326 39.186C27.7072 39.2221 27.8776 39.2449 28.1311 39.2449C28.7192 39.2431 29.1624 39.1841 29.1624 38.7468Z" fill="#1D1D1B"/>
<path d="M33.5 37.1839L33.483 37.0375C33.4745 36.9139 33.4745 36.8188 33.4745 36.7523C33.3764 35.8529 32.7544 34.8015 31.5996 34.8015C31.2076 34.8015 30.871 34.9118 30.6004 35.138C30.0529 35.5906 29.6353 36.6724 29.6353 37.3664V37.5642C29.6353 38.5205 30.2169 39.1423 30.9946 39.3096C31.0031 39.3096 31.0265 39.3172 31.0755 39.3248L31.1565 39.34C32.3602 39.34 32.9333 39.0111 33.1698 38.4559C33.2955 38.184 33.5 37.4235 33.5 37.1839ZM32.8545 37.066C32.8545 37.8474 32.503 38.7031 31.7423 38.7031C30.6047 38.7031 30.1466 38.2943 30.1466 37.279C30.1551 37.2561 30.1551 37.2352 30.1637 37.2067C30.1637 37.1782 30.1637 37.1554 30.1722 37.1345C30.3447 36.3092 30.7048 35.4251 31.4974 35.4251C31.7999 35.4251 32.243 35.6229 32.471 35.8263C32.4966 35.8491 32.5285 35.8929 32.5775 35.9727C32.7629 36.2636 32.8545 36.6287 32.8545 37.066Z" fill="#1D1D1B"/>
<path d="M36.6425 38.5206C36.634 38.5054 36.6169 38.4921 36.6105 38.4845C36.5125 38.3609 36.455 38.3609 36.1929 38.3609C36.1035 38.3609 35.9565 38.3609 35.7669 38.3685C35.5794 38.3761 35.4302 38.3837 35.3322 38.3837C35.2023 38.3837 35.1022 38.3837 35.0382 38.3761C34.9637 38.1784 34.9232 37.9445 34.9232 37.6822C34.9232 37.5586 34.9317 37.376 34.9487 37.1345C34.9658 36.8931 34.9743 36.7106 34.9743 36.587C34.9743 36.4634 34.9658 36.1934 34.9487 35.7827L34.9232 35.1686C34.9146 35.045 34.9146 34.9575 34.9146 34.891C34.9061 34.8548 34.8252 34.832 34.6846 34.832C34.512 34.832 34.3991 34.891 34.333 34.9993C34.3074 35.0278 34.301 35.0944 34.301 35.1971C34.301 35.256 34.301 35.3435 34.3096 35.4518C34.3181 35.5679 34.3181 35.6572 34.3181 35.7142C34.3181 36.2029 34.3181 36.4957 34.3266 36.5832C34.3522 37.0148 34.3671 37.3646 34.3671 37.6422C34.3671 37.7221 34.3671 37.84 34.3586 37.992C34.3501 38.1537 34.3501 38.2696 34.3501 38.3495C34.3501 38.4294 34.3756 38.6119 34.4247 38.9123C34.4331 38.9636 34.4566 38.9998 34.4822 39.0226C34.5482 39.0892 34.6696 39.1176 34.8422 39.1176C34.8507 39.1176 35.9053 38.9941 36.2654 38.9427C36.3634 38.9427 36.438 38.9427 36.4955 38.9351C36.602 38.9294 36.6191 38.688 36.6425 38.5206Z" fill="#1D1D1B"/>
<path d="M40.2367 38.7028C40.2367 38.3891 40.2111 38.0012 40.1621 37.5335L40.0386 36.3718C39.9725 35.6188 39.8745 35.1511 39.3845 34.8678C39.295 34.8165 39.148 34.7879 38.9435 34.7879H38.8455C38.0849 34.7879 37.9038 34.7728 37.6822 35.0142C37.5927 35.1815 37.5267 35.3203 37.4862 35.4458C37.3307 35.8261 37.2497 36.1398 37.2327 36.3813C37.2071 37.1476 37.2071 37.3605 37.2071 37.9366C37.2071 38.0602 37.2071 38.2503 37.2156 38.507V39.0774C37.2156 39.2162 37.4287 39.296 37.5928 39.296C37.7568 39.296 37.8377 39.2371 37.8377 39.1211V39.0261C37.8292 38.99 37.8292 38.9595 37.8292 38.9386C37.8292 38.8721 37.8377 38.7713 37.8462 38.6325C37.8548 38.4937 37.8548 38.391 37.8548 38.3264V38.2465C37.8462 38.2104 37.8462 38.1875 37.8462 38.1742C37.8462 38.1305 37.8548 38.064 37.8633 37.9765C37.8718 37.889 37.8803 37.8225 37.8803 37.7864C37.8889 37.2084 38.0615 37.1875 38.871 37.1875C39.1331 37.1875 39.2886 37.1951 39.3376 37.2103C39.6657 37.3054 39.6401 37.5392 39.6401 38.2332V38.5545C39.6487 38.9938 39.6657 39.2124 40.0002 39.2124C40.2282 39.2067 40.2367 39.0242 40.2367 38.7028ZM39.508 36.4155C39.508 36.5981 39.4335 36.6855 39.2779 36.6855C39.2374 36.6855 39.1799 36.6779 39.1054 36.6703C39.0244 36.6627 38.9669 36.6551 38.9243 36.6551C38.8668 36.6551 38.7858 36.6627 38.6793 36.6779C38.5727 36.7007 38.4918 36.7064 38.4343 36.7064H38.2212C37.9358 36.7064 37.7951 36.6627 37.7951 36.5676C37.7951 36.4802 37.9826 35.2595 38.6963 35.2595C38.9179 35.2595 39.1885 35.2747 39.2609 35.4858C39.4271 35.9478 39.508 36.2634 39.508 36.4155Z" fill="#1D1D1B"/>
<path d="M43.8052 38.0679C43.8052 37.6952 43.6007 37.3454 43.1917 37.0013C43.0042 36.8396 42.8316 36.7389 42.6846 36.6875C43.1256 36.4327 43.3472 36.0658 43.3472 35.6C43.3472 35.4022 43.3067 35.1912 43.2236 34.9649C42.9041 34.6207 42.299 34.4249 41.7664 34.4249C41.2018 34.4249 41.0292 34.5865 41.0292 35.0828C41.0292 35.1626 41.0377 35.2881 41.0463 35.4478C41.0548 35.6151 41.0633 35.733 41.0633 35.8129C41.0633 35.849 41.0548 35.8927 41.0463 35.9593C41.0292 36.0259 41.0207 36.0696 41.0207 36.0905C40.9951 36.3453 40.9887 36.543 40.9887 36.6818V37.0031C40.9887 37.2446 41.0058 37.6021 41.0463 38.0774C41.1123 39.0262 40.7927 39.3475 42.201 39.3475C42.4375 39.3475 42.5866 39.3323 42.642 39.3114C43.4197 38.9806 43.8052 38.5718 43.8052 38.0679ZM42.8061 35.6209C42.8061 35.7882 42.7485 35.927 42.6249 36.0525C42.4865 36.1989 41.8793 36.4251 41.6172 36.4536C41.6002 36.2863 41.5917 36.1095 41.5917 35.9422C41.5917 35.657 41.6087 35.3642 41.6407 35.0733C41.7472 35.0372 41.8452 35.0143 41.9517 35.0143C42.38 35.0143 42.8061 35.2615 42.8061 35.6209ZM43.0681 38.0603C43.0681 38.1991 43.0191 38.3303 42.9296 38.4615C42.7422 38.7315 42.5525 38.8417 42.233 38.8417C42.1754 38.8417 42.0774 38.8417 41.9539 38.8341H41.6684C41.6769 38.798 41.6769 38.7391 41.6769 38.6668C41.6769 38.5128 41.6599 38.2789 41.6364 37.9652C41.6108 37.6591 41.5959 37.4329 41.5959 37.2789C41.5959 37.256 41.5959 37.2503 41.6044 37.2427C41.613 37.1914 41.7515 37.1705 42.0221 37.1705C42.1605 37.1705 42.2585 37.1781 42.316 37.199C42.7166 37.3359 43.0681 37.6877 43.0681 38.0603Z" fill="#1D1D1B"/>
<path d="M48.2985 37.1839L48.2814 37.0375C48.2729 36.9139 48.2729 36.8188 48.2729 36.7523C48.1749 35.8529 47.5528 34.8015 46.3981 34.8015C46.0061 34.8015 45.6694 34.9118 45.3989 35.138C44.8513 35.5906 44.4337 36.6724 44.4337 37.3664V37.5642C44.4337 38.5205 45.0154 39.1423 45.793 39.3096C45.8015 39.3096 45.825 39.3172 45.874 39.3248L45.9549 39.34C47.1587 39.34 47.7318 39.0111 47.9683 38.4559C48.094 38.184 48.2985 37.4235 48.2985 37.1839ZM47.6508 37.066C47.6508 37.8474 47.2993 38.7031 46.5387 38.7031C45.401 38.7031 44.943 38.2943 44.943 37.279C44.9515 37.2561 44.9515 37.2352 44.96 37.2067C44.96 37.1782 44.96 37.1554 44.9685 37.1345C45.1411 36.3092 45.5011 35.4251 46.2937 35.4251C46.5962 35.4251 47.0394 35.6229 47.2673 35.8263C47.2929 35.8491 47.3248 35.8929 47.3738 35.9727C47.5613 36.2636 47.6508 36.6287 47.6508 37.066Z" fill="#1D1D1B"/>
<path d="M52.2676 35.9632C52.2676 35.8833 52.2357 35.7807 52.1696 35.6571C51.7776 34.9193 50.3864 34.9346 49.6088 34.9346C49.3723 35.0962 49.2317 35.3871 49.1912 35.8111C49.1592 36.2997 49.1422 36.6724 49.1337 36.9215C49.1017 37.2276 49.0761 37.4615 49.0527 37.6155C49.0122 37.9596 48.9952 38.2372 48.9952 38.4559C48.9952 38.8438 49.0613 39.0396 49.1826 39.0396C49.5023 39.0396 49.6663 38.8418 49.6663 38.4407C49.6663 38.3741 49.6577 38.2733 49.6493 38.1403C49.6407 38.0167 49.6322 37.9216 49.6322 37.8551C49.6322 37.6573 49.6727 37.5261 49.7622 37.4748L49.7537 37.4824L49.7622 37.4976C50.4589 38.4255 51.0298 38.8932 51.473 38.8932C51.5795 38.8932 51.6775 38.8647 51.7669 38.7981C51.7669 38.608 51.669 38.4255 51.4644 38.2582C51.277 38.127 51.0959 37.9958 50.9084 37.8703C50.7039 37.7162 50.6058 37.5698 50.6058 37.4177H50.6378C51.13 37.2941 51.4389 37.1915 51.5795 37.1116C51.6775 37.0603 51.801 36.9576 51.9395 36.8112C52.2272 36.526 52.2676 36.526 52.2676 35.9632ZM51.6051 36.1761C51.147 36.8474 50.2948 36.9652 49.7387 36.9652C49.7302 36.9652 49.7217 36.9652 49.7132 36.9576H49.6812L49.7068 36.0811C49.7153 35.7807 49.8942 35.5031 50.1989 35.5031C50.559 35.5031 51.3622 35.6647 51.5177 35.832C51.5731 35.9708 51.5965 36.0868 51.6051 36.1761Z" fill="#1D1D1B"/>
<path d="M56.0812 38.7028C56.0812 38.3891 56.0557 38.0012 56.0066 37.5335L55.8831 36.3718C55.817 35.6188 55.719 35.1511 55.229 34.8678C55.1395 34.8165 54.9925 34.7879 54.788 34.7879H54.69C53.9294 34.7879 53.7483 34.7728 53.5267 35.0142C53.4372 35.1815 53.3712 35.3203 53.3307 35.4458C53.1752 35.8261 53.0942 36.1398 53.0772 36.3813C53.0516 37.1476 53.0516 37.3605 53.0516 37.9366C53.0516 38.0602 53.0516 38.2503 53.0601 38.507V39.0774C53.0601 39.2162 53.2732 39.296 53.4372 39.296C53.6013 39.296 53.6823 39.2371 53.6823 39.1211V39.0261C53.6737 38.99 53.6737 38.9595 53.6737 38.9386C53.6737 38.8721 53.6823 38.7713 53.6908 38.6325C53.6993 38.4937 53.6993 38.391 53.6993 38.3264V38.2465C53.6908 38.2104 53.6908 38.1875 53.6908 38.1742C53.6908 38.1305 53.6993 38.064 53.7078 37.9765C53.7164 37.889 53.7249 37.8225 53.7249 37.7864C53.7334 37.2084 53.9038 37.1875 54.7155 37.1875C54.9776 37.1875 55.1332 37.1951 55.1821 37.2103C55.5102 37.3054 55.4847 37.5392 55.4847 38.2332V38.5545C55.4932 38.9938 55.5103 39.2124 55.8447 39.2124C56.0748 39.2067 56.0812 39.0242 56.0812 38.7028ZM55.3547 36.4155C55.3547 36.5981 55.2801 36.6855 55.1246 36.6855C55.0841 36.6855 55.0266 36.6779 54.952 36.6703C54.8711 36.6627 54.8135 36.6551 54.771 36.6551C54.7134 36.6551 54.6325 36.6627 54.5259 36.6779C54.4194 36.7007 54.3384 36.7064 54.2809 36.7064H54.0679C53.7824 36.7064 53.6418 36.6627 53.6418 36.5676C53.6418 36.4802 53.8293 35.2595 54.543 35.2595C54.7646 35.2595 55.0352 35.2747 55.1076 35.4858C55.2716 35.9478 55.3547 36.2634 55.3547 36.4155Z" fill="#1D1D1B"/>
<path d="M60.2972 35.0276C60.2972 34.8812 60.2802 34.8013 60.2485 34.7785C60.1908 34.7424 59.9694 34.7272 59.5946 34.7272C59.3987 34.7272 59.1025 34.7348 58.7102 34.7557C58.3184 34.7785 58.0222 34.7918 57.8178 34.7918C57.6452 34.7918 57.4894 34.7842 57.3422 34.769C57.3168 34.769 57.2851 34.7614 57.2358 34.7462C57.1786 34.731 57.1463 34.7234 57.1209 34.7234C56.9165 34.7234 56.81 34.7956 56.81 34.942C56.81 34.9933 56.8185 35.0732 56.827 35.1835C56.8355 35.2938 56.8355 35.3812 56.8355 35.4325V35.4554C56.844 35.4782 56.9017 35.4915 56.9997 35.4915C57.1231 35.4915 57.302 35.4763 57.5404 35.4402C57.7771 35.4041 57.9583 35.3888 58.0817 35.3888C58.1564 35.3888 58.1966 35.4041 58.1966 35.425C58.1966 35.4535 58.1881 35.4972 58.1796 35.5486C58.1711 35.5999 58.1627 35.636 58.1627 35.6589C58.0817 36.484 58.0392 37.5944 58.0392 38.9748C58.0392 39.0623 58.1202 39.106 58.2844 39.106C58.4565 39.106 58.6122 39.0774 58.7509 39.0109C58.7826 38.9234 58.7996 38.6382 58.7996 38.1572C58.7996 38.026 58.7996 37.8283 58.7911 37.5659C58.7826 37.3035 58.7742 37.1058 58.7742 36.9669C58.7742 36.4631 58.8234 35.944 58.9129 35.4116H59.6988C59.748 35.4116 59.8222 35.4192 59.9201 35.4345C60.0102 35.4497 60.0843 35.4573 60.1251 35.4573C60.24 35.4592 60.2972 35.3128 60.2972 35.0276Z" fill="#1D1D1B"/>
<path d="M61.6227 35.2484C61.5734 34.8833 61.45 34.7008 61.2456 34.7008C61.0899 34.7008 60.9263 34.8681 60.9263 35.0069V35.1096C60.9263 35.2484 61.0412 35.3587 61.2688 35.4385C61.4608 35.4309 61.4925 35.3929 61.6227 35.2484ZM61.9335 38.2354C61.9335 37.9806 61.9018 37.5928 61.8441 37.0737C61.8039 36.701 61.7784 36.4519 61.7784 36.3283C61.7784 36.161 61.7524 36.007 61.6974 35.8758C61.5587 35.8093 61.4438 35.7808 61.3605 35.7808C61.1392 35.7808 61.0259 35.9557 61.0259 36.3074C61.0259 36.4823 61.052 36.6801 61.1007 36.9064C61.1414 37.0813 61.1584 37.1611 61.1584 37.1478C61.1584 37.2581 61.1499 37.433 61.1414 37.6593C61.1239 37.8855 61.1154 38.0605 61.1154 38.1784C61.1154 38.8001 61.2394 39.1709 61.484 39.304H61.5247C61.5502 39.2963 61.5564 39.2963 61.5649 39.2963C61.5734 39.2963 61.5972 39.2963 61.6227 39.304H61.6714C61.8441 39.2507 61.9335 38.8933 61.9335 38.2354Z" fill="#1D1D1B"/>
<path d="M66.4207 35.8989C66.3884 35.4673 66.3057 35.2486 66.184 35.2486C66.1585 35.2486 66.1092 35.2771 66.0368 35.3284C65.9388 35.4083 65.8562 35.5034 65.8007 35.6136C65.4723 36.3286 65.2362 36.8704 65.089 37.2355C64.9248 37.5568 64.8036 37.7983 64.7119 37.9504C64.6224 38.1177 64.4905 38.3307 64.401 38.3896C64.0664 38.1785 63.5336 36.9731 63.3292 36.3228C63.2313 36.0243 63.182 35.8551 63.1735 35.8266C63.1078 35.5927 63.1248 35.4901 62.8372 35.4901C62.707 35.4901 62.575 35.6364 62.575 35.7524C62.575 35.7886 62.6067 35.9426 62.6815 36.2049C62.7624 36.5054 62.8859 36.8191 63.0416 37.1328C63.2952 37.6652 63.4419 37.9656 63.4764 38.0321C63.7556 38.6672 64.0726 39.1578 64.4327 39.4924C64.6371 39.4848 64.7526 39.3536 64.7758 39.0836C65.1105 38.5798 65.3086 38.2584 65.3658 38.1348C65.4468 37.9675 65.5447 37.7907 65.6597 37.5949C65.7899 37.3686 65.8731 37.2146 65.9048 37.1347C66.1415 36.5111 66.3142 36.1023 66.4207 35.8989Z" fill="#1D1D1B"/>
<path d="M70.0619 38.7028C70.0619 38.3891 70.0358 38.0012 69.9871 37.5335L69.8637 36.3718C69.7975 35.6188 69.6995 35.1511 69.2092 34.8678C69.1197 34.8165 68.9731 34.7879 68.7687 34.7879H68.6702C67.9097 34.7879 67.7286 34.7728 67.5072 35.0142C67.4177 35.1815 67.3515 35.3203 67.3113 35.4458C67.1556 35.8261 67.0746 36.1398 67.0576 36.3813C67.0321 37.1476 67.0321 37.3605 67.0321 37.9366C67.0321 38.0602 67.0321 38.2503 67.0406 38.507V39.0774C67.0406 39.2162 67.2535 39.296 67.4177 39.296C67.5819 39.296 67.6629 39.2371 67.6629 39.1211V39.0261C67.6544 38.99 67.6544 38.9595 67.6544 38.9386C67.6544 38.8721 67.6629 38.7713 67.6714 38.6325C67.6799 38.4937 67.6799 38.391 67.6799 38.3264V38.2465C67.6714 38.2104 67.6714 38.1875 67.6714 38.1742C67.6714 38.1305 67.6799 38.064 67.6884 37.9765C67.6969 37.889 67.7054 37.8225 67.7054 37.7864C67.7138 37.2084 67.8843 37.1875 68.6962 37.1875C68.9578 37.1875 69.1135 37.1951 69.1627 37.2103C69.4906 37.3054 69.4651 37.5392 69.4651 38.2332V38.5545C69.4736 38.9938 69.4906 39.2124 69.8252 39.2124C70.0528 39.2067 70.0619 39.0242 70.0619 38.7028ZM69.3332 36.4155C69.3332 36.5981 69.2584 36.6855 69.1027 36.6855C69.0625 36.6855 69.0048 36.6779 68.93 36.6703C68.8491 36.6627 68.7919 36.6551 68.7494 36.6551C68.6917 36.6551 68.6107 36.6627 68.5043 36.6779C68.3978 36.7007 68.3168 36.7064 68.2591 36.7064H68.0462C67.7608 36.7064 67.6199 36.6627 67.6199 36.5676C67.6199 36.4802 67.8073 35.2595 68.5212 35.2595C68.7426 35.2595 69.0133 35.2747 69.0857 35.4858C69.2522 35.9478 69.3332 36.2634 69.3332 36.4155Z" fill="#1D1D1B"/>
<path fill-rule="evenodd" clip-rule="evenodd" d="M65.9751 21.0453C67.4732 22.5513 65.1829 22.3116 70.0188 25.2151C72.9931 27.0004 73.0508 26.0364 74.5292 26.6943C75.2109 26.9985 75.6797 26.9281 76.5618 26.8635C81.1463 26.5289 83.5476 26.5231 86.5518 23.5608C89.5662 20.589 92.7772 20.8115 88.5822 17.1362C86.7347 15.5181 87.7663 15.6721 86.7987 14.7139C85.3266 13.2574 85.9358 13.3069 84.937 12.3752C83.8035 11.3161 83.2452 12.1718 82.1564 11.1508C80.4414 9.54026 80.3559 11.0196 78.9563 10.5138C77.7486 10.0765 76.5488 10.1487 75.3088 10.7287C73.7348 11.4645 74.4992 11.6945 72.2072 11.9645C71.3613 8.4603 73.0803 9.3768 72.0153 8.33483C71.2079 7.54385 70.5386 6.53234 69.6757 5.8935C68.2999 4.87818 67.4817 5.57597 65.8431 5.17479C64.007 4.72417 63.6231 4.58727 61.5117 4.92951C60.0204 5.17098 58.6569 5.51323 57.1254 5.65583C55.327 5.82317 53.367 7.09893 52.1909 8.04205L48.6841 11.6717C47.5379 13.016 47.4122 16.4992 46.9882 18.5793C46.6537 20.224 45.2476 20.7792 47.9555 21.0016C48.6074 21.0549 49.155 21.3591 49.5363 21.688C50.2543 22.3116 50.0007 22.209 50.9893 22.6787C54.9243 24.5515 58.7124 24.5895 63.0393 22.9468C64.6269 22.3459 65.2231 22.247 65.9751 21.0453Z" fill="#262626"/>
<path fill-rule="evenodd" clip-rule="evenodd" d="M48.143 15.7117C48.5478 16.3183 48.6415 16.7251 49.5044 16.3354C50.2096 16.0159 50.4226 15.5539 51.049 15.6528C51.2109 16.4608 50.9084 16.4266 50.8487 17.0522C51.6178 17.2804 53.3776 17.1758 54.3662 17.3773C54.3726 18.2044 53.5949 18.1359 52.6255 18.3831C52.5254 18.7558 52.4849 18.7102 52.4274 18.809L47.8596 20.0107C48.6394 20.2997 54.4684 19.2786 55.1204 19.0809C56.3816 18.6987 56.9357 18.3337 57.9668 17.8469C60.4937 16.6529 60.4337 17.4705 63.3609 15.1413C65.7961 13.2038 70.1745 11.3785 70.1553 10.1236C68.391 10.5039 63.2097 14.2667 62.3961 14.3903C62.7625 14.2249 63.1203 13.7762 63.4294 13.5461C63.7918 13.2742 64.2816 12.9966 64.6887 12.7418C66.0543 11.8843 68.6169 10.4792 69.691 9.49621C70.6643 8.60638 70.7923 8.27742 69.7652 7.34007C69.2522 7.87055 69.7335 8.07777 68.1142 9.30795C67.4902 9.78141 66.4439 10.5248 65.5725 10.7492L66.1393 10.1902C66.3652 10.0419 66.5548 9.93921 66.7655 9.79092C67.878 9.01325 69.6032 7.93328 69.2199 6.33236C67.2898 5.44442 66.5016 6.01483 64.6201 6.36848L64.7928 6.04337C64.8076 6.0167 64.8313 5.97678 64.8483 5.95017C64.9633 5.74481 64.957 5.87985 65.0227 5.62695C63.4317 5.37597 62.6922 5.67449 61.1052 5.88551C59.6563 6.07757 58.6932 6.9674 58.0755 6.97312L58.8681 6.13271C56.844 6.34374 56.2091 6.29051 54.7028 7.32298C54.8263 7.68421 54.6666 7.34194 54.9776 7.57391C55.2674 7.78686 55.0863 7.49408 55.2865 7.7812C53.5672 8.53413 53.107 8.00173 51.3707 9.68821C50.4439 10.5876 49.2317 11.4109 48.6245 12.7665C48.2985 13.5023 47.8404 14.8295 48.143 15.7117Z" fill="#D99C63"/>
<path fill-rule="evenodd" clip-rule="evenodd" d="M75.0257 11.9227C75.3966 12.4304 75.8331 12.2954 76.0738 13.343C74.9085 13.3639 74.9317 12.3543 72.582 12.8125C71.1461 13.092 70.6751 13.5502 70.5386 14.7766C71.0584 14.7348 71.7322 14.113 72.2304 15.2938C71.5764 15.2843 71.3528 15.368 70.7923 15.4022C70.1106 15.444 70.2255 15.2957 69.5585 15.3508C68.9663 16.0962 68.8281 16.9803 69.5523 17.7256C70.136 18.3283 69.6933 17.8891 70.2663 17.9937C71.0499 19.2429 70.375 19.2771 72.1942 19.6745C73.4364 19.9445 74.0796 19.8551 74.951 20.5149L74.6232 20.6689C74.3202 20.802 74.5144 20.6499 74.2223 20.8381L78.3153 21.7033C79.1844 21.7869 78.5412 21.6975 78.8198 21.6063C78.98 21.5549 78.6047 21.4466 79.3141 21.515C79.3866 21.5226 79.7489 21.6215 79.9024 21.6538C80.2648 21.728 80.8208 21.8154 81.1616 21.804C81.7901 21.785 81.8388 21.6158 82.3761 21.4865C82.8511 21.3724 82.8466 21.3838 83.2429 21.5644L83.62 21.7451C84.7513 21.9333 87.3145 20.5092 87.7448 19.9255C88.4882 18.9139 87.5574 18.5014 86.9096 17.1172C86.6667 16.5962 86.7415 16.2844 86.5688 15.8338C85.7376 15.7121 85.8039 15.9098 85.0072 16.0486C85.1669 15.5505 85.2309 15.7501 85.2286 15.3318L84.6449 14.7101L85.1709 14.6112C85.1901 14.6093 85.2416 14.6131 85.2711 14.6017C84.6533 12.1889 84.0356 12.9266 81.8218 12.5159C81.4362 12.0368 81.5857 11.145 80.2965 11.3656C79.5508 11.493 78.3516 12.0083 77.6908 11.7478C78.0147 11.4074 78.1279 11.6223 78.3108 11.185C76.3869 10.9017 76.2442 11.4512 75.0257 11.9227Z" fill="#F5E3A4"/>
<path fill-rule="evenodd" clip-rule="evenodd" d="M50.1052 20.804C51.1107 22.5153 52.7214 23.2263 54.8263 23.5552C57.4023 23.9584 57.8773 23.1408 59.8862 22.8537C60.4212 22.7776 61.0752 22.6445 61.5095 22.4316C60.8663 21.9125 59.179 22.1065 58.6167 21.247C59.7542 21.3459 61.1154 22.1311 62.3321 21.9106C63.6955 21.6634 64.944 21.0835 65.9133 20.6215C65.6048 17.0222 64.341 15.368 69.6842 12.8925L71.2356 12.3487L71.0737 11.5482C70.884 11.0786 71.0097 11.3695 70.8778 11.1984C70.5386 11.3904 70.8115 11.2193 70.5748 11.4075L69.8784 12.0274C69.5138 12.3202 69.1327 12.5312 68.6939 12.7575C67.1686 13.5466 65.5702 14.636 64.1666 15.6305C62.2019 17.0222 62.5343 17.2637 59.3539 18.2752C58.3269 18.6023 57.1979 18.7125 56.2389 19.051C54.1957 19.7735 50.8061 20.3116 50.1052 20.804Z" fill="#BB7533"/>
<path fill-rule="evenodd" clip-rule="evenodd" d="M68.5043 22.4067L67.4517 22.0929C67.9058 23.3991 69.1073 23.7205 70.1021 24.5305C70.9712 25.2378 72.1687 25.9659 73.9624 25.9469C73.5661 24.9601 72.7757 24.9487 72.3793 24.3859C74.8445 24.7149 73.0803 26.6238 78.6347 26.0991L78.1087 25.5077C79.5083 25.561 80.9572 26.1979 82.3014 25.4906C82.444 25.4146 82.5845 25.3252 82.6847 25.1636C82.8574 24.8841 82.7271 25.0685 82.7996 24.8708L82.9021 24.5532C83.9994 24.4639 84.8113 24.2833 85.2501 23.4999C84.0911 23.8479 80.7908 24.1844 79.3826 24.0931C77.8403 23.9943 73.6346 22.9048 72.1879 22.3458C71.2203 21.9712 71.1654 21.6024 70.0789 21.4464C68.0847 21.1593 67.8288 20.2201 66.6845 18.8302C66.3929 19.3113 66.7808 20.4597 67.1086 21.0091C67.6861 21.9712 68.4295 21.5662 68.5043 22.4067Z" fill="#BB7533"/>
<path fill-rule="evenodd" clip-rule="evenodd" d="M89.8539 20.2924C89.8624 19.1763 88.7481 17.794 87.8897 17.3452C88.0749 18.1628 90.4908 20.4844 84.7598 21.9408C80.8208 22.9428 79.5615 22.2622 76.7045 21.7469C74.1243 21.2811 71.5957 20.8 70.0126 19.4462C69.4396 18.9557 68.1294 17.8206 68.04 16.792C67.9415 15.6644 68.6854 15.1302 69.1412 14.6187C69.169 14.5864 69.3734 14.3487 69.4011 14.3069C69.6463 13.9551 69.4713 14.305 69.648 13.8696C67.4472 14.2935 65.8029 16.2786 66.6658 17.7464C67.0276 18.3625 69.4096 20.5756 70.5964 21.0586C72.013 21.6347 71.3313 21.8552 74.0564 22.4561C77.5674 23.2299 78.6686 23.5075 82.4633 23.1177C85.6952 22.7869 87.0014 22.0796 89.8539 20.2924Z" fill="#D99C63"/>
<path fill-rule="evenodd" clip-rule="evenodd" d="M52.4274 18.8112C52.4849 18.7124 52.5254 18.758 52.6255 18.3853C53.5928 18.1382 54.3725 18.2067 54.3662 17.3796C53.3776 17.178 51.6178 17.2826 50.8487 17.0544C50.9084 16.4288 51.2109 16.4631 51.049 15.655C50.4226 15.5562 50.2117 16.0182 49.5044 16.3376C48.6415 16.7274 48.5456 16.3186 48.1429 15.714C48.0492 15.887 48.1344 15.5751 48.0109 16.0695C47.8468 16.7293 47.9065 18.5508 47.996 19.1611C51.1278 19.1782 51.7244 18.2161 52.4274 18.8112Z" fill="#BB7533"/>
<path fill-rule="evenodd" clip-rule="evenodd" d="M72.2264 16.9956L72.8187 17.4063C73.1341 17.6136 73.0803 17.5337 73.2784 17.796C73.5921 18.2144 73.5213 18.5547 73.8752 18.9464C74.5847 19.7336 75.712 19.2848 76.9027 19.4407L77.0051 20.053C77.0068 20.0663 77.0069 20.1043 77.0176 20.1271C79.9256 18.5471 80.6458 19.5872 81.7261 19.0091C81.2788 18.1098 75.9373 18.9464 74.883 18.4729C74.2568 18.1915 74.0309 17.5983 73.8305 16.7694C72.7779 17.0355 73.9432 17.2675 72.2264 16.9956Z" fill="#262626"/>
<path fill-rule="evenodd" clip-rule="evenodd" d="M75.8926 16.4271L75.8671 17.0184C76.5211 16.8245 76.6405 16.5507 77.3307 16.2902C77.6438 16.1723 78.8028 15.8091 79.2162 15.7616C81.2828 15.524 81.1616 17.0812 82.1055 17.3759C82.7232 17.0488 82.0607 17.488 82.512 16.8111C83.1812 16.7598 83.4581 16.7617 83.8058 16.3396C82.9961 15.8738 82.5188 16.6648 81.4515 15.8928C79.6232 14.5676 78.1041 15.2388 76.4361 15.4802C75.0659 15.678 74.904 15.3376 73.7795 15.1437C74.4952 15.9042 74.5716 16.178 75.8926 16.4271Z" fill="#262626"/>
<path fill-rule="evenodd" clip-rule="evenodd" d="M77.299 12.5157C77.4802 12.837 77.6076 12.6963 77.8335 13.1393C77.3115 13.3161 76.9876 13.6165 76.8347 14.0462C77.7293 13.9778 78.0872 13.2838 79.3866 13.3199C80.5116 13.3504 80.9357 13.8105 82.1094 13.9322C81.7924 13.3599 80.9164 12.683 80.1475 12.5213C78.5514 12.1848 78.8436 12.2457 77.299 12.5157Z" fill="#262626"/>
<path fill-rule="evenodd" clip-rule="evenodd" d="M83.4751 18.832C83.4881 18.8644 83.5159 18.8777 83.5283 18.9252C83.5391 18.9709 83.573 18.9956 83.5838 19.0146C83.5985 19.0393 83.6755 19.1477 83.6902 19.18C83.9932 19.8493 83.2792 19.9576 83.9162 20.5471C84.3442 20.0489 84.0034 19.5869 84.8662 19.0013C85.9573 18.2616 85.8356 18.2198 86.6667 17.9784C86.3536 17.503 86.7862 17.9441 86.3621 17.697C86.1107 17.5524 86.2642 17.6988 86.0298 17.5619C85.6227 17.3243 85.9975 17.4403 85.5825 17.0733C85.0474 17.6323 86.0043 18.1096 83.4751 18.832Z" fill="#262626"/>
</svg>
